<?xml version="1.0" standalone="no"?>
<!DOCTYPE svg PUBLIC "-//W3C//DTD SVG 1.1//EN" "http://www.w3.org/Graphics/SVG/1.1/DTD/svg11.dtd" >
<svg>
<metadata>
Created by FontForge 20110222 at Thu Jul 17 19:31:04 2014
 By deploy user
generated by Tao Publishing Co Pvt Ltd OSHO Commune Internatinal Poona 411 001 India.
</metadata>
<defs>
<font id="KalapiRegular" horiz-adv-x="564" >
  <font-face 
    font-family="Kalapi"
    font-weight="5"
    font-stretch="normal"
    units-per-em="1000"
    panose-1="0 0 0 0 0 0 0 0 0 0"
    ascent="800"
    descent="-200"
    x-height="556"
    cap-height="805"
    bbox="-575 -314 1909 842"
    underline-thickness="20"
    underline-position="-123"
    unicode-range="U+0020-F002"
  />
<missing-glyph horiz-adv-x="800" 
d="M50 0v800h700v-800h-700zM700 50v700h-600v-700h600z" />
    <glyph glyph-name=".notdef" horiz-adv-x="800" 
d="M50 0v800h700v-800h-700zM700 50v700h-600v-700h600z" />
    <glyph glyph-name=".null" unicode="&#xd7;" horiz-adv-x="0" 
 />
    <glyph glyph-name=".null" unicode="&#x141;" horiz-adv-x="0" 
 />
    <glyph glyph-name=".null" unicode="&#xfd;" horiz-adv-x="0" 
 />
    <glyph glyph-name="nonmarkingreturn" horiz-adv-x="186" 
 />
    <glyph glyph-name="space" unicode=" " horiz-adv-x="186" 
 />
    <glyph glyph-name="exclam" unicode="!" 
d="M298 372v114q0 20 -17.5 34.5t-40.5 14.5q-47 0 -81 -37t-34 -86q0 -34 25.5 -57.5t59.5 -23.5q26 0 39.5 7.5t48.5 33.5zM298 322q-24 -15 -43.5 -23t-44.5 -8q-51 0 -88 35t-37 86q0 66 45.5 114.5t109.5 48.5q39 0 68.5 -26.5t29.5 -60.5v-389q0 -33 9.5 -50t46.5 -17
q21 0 29 6t42 50q7 8 21.5 -4t8.5 -22q-24 -40 -48.5 -55t-52.5 -15q-60 0 -78 28t-18 79v223z" />
    <glyph glyph-name="quotedbl" unicode="&#x22;" horiz-adv-x="10" 
d="M17 686q0 -20 -14.5 -34.5t-33.5 -14.5q-20 0 -34.5 14.5t-14.5 34.5q0 19 14.5 33.5t34.5 14.5q19 0 33.5 -14.5t14.5 -33.5z" />
    <glyph glyph-name="numbersign" unicode="#" 
d="M406 297q-3 -2 -18.5 -7.5t-37.5 -12t-37 -10t-30 -3.5q-17 0 -28 2t-11 18q0 22 13 22q27 0 42 1t58 14.5t76 33t33 62.5q0 53 -42.5 82t-107.5 29q-52 0 -96.5 -15.5t-76.5 -26.5q-7 -2 -13.5 6.5t-6.5 19.5q0 10 28 22t69.5 23t95.5 11q82 0 136 -41.5t54 -111.5
q0 -34 -18 -58.5t-51 -43.5q47 -58 61 -93t14 -74q0 -70 -51.5 -110t-122.5 -40q-44 0 -99.5 40.5t-110.5 98t-104 118.5q-5 6 5 15t20 9q6 0 44.5 -46t76.5 -88t83.5 -74.5t84.5 -32.5q55 0 94.5 28t39.5 82q0 42 -17.5 77.5t-48.5 73.5z" />
    <glyph glyph-name="dollar" unicode="$" 
d="M289 316q-50 -51 -77 -97t-27 -96q0 -43 26.5 -71.5t69.5 -28.5q41 0 68.5 33.5t27.5 78.5q0 44 -22.5 88.5t-65.5 92.5zM263 343q-45 45 -90 83t-96.5 76.5t-57.5 43t-6 9.5q0 10 10 19.5t18 4.5q36 -23 62.5 -44t81.5 -66.5t105 -97.5l105 99q27 26 71 58.5t55 41.5
q8 6 18.5 -9.5t3.5 -22.5q-24 -27 -61.5 -51.5t-58.5 -44.5l-107 -99q48 -54 74.5 -105t26.5 -103q0 -60 -38 -106t-96 -46q-61 0 -99.5 39.5t-38.5 100.5q0 56 31 109.5t87 110.5z" />
    <glyph glyph-name="percent" unicode="%" 
d="M377 212q-28 -20 -63.5 -33.5t-71.5 -13.5q-50 0 -84 40t-34 93v207q0 14 -13 22.5t-29 6.5q-10 -1 -20.5 -14t-12.5 -14q-11 -6 -25.5 4.5t-6.5 19.5q23 25 32 33t28 11q34 4 60.5 -16.5t26.5 -53.5v-206q0 -37 22 -65t56 -28q39 0 75 17.5t60 39.5l1 291q0 12 20 12
t20 -12l-1 -465q0 -25 7.5 -42.5t25.5 -17.5q24 0 35 15.5t18.5 27t15.5 11.5q10 0 18.5 -6.5t6.5 -14.5q-9 -30 -33 -51.5t-61 -21.5q-33 0 -53 30.5t-20 69.5v124z" />
    <glyph glyph-name="ampersand" unicode="&#x26;" 
d="M510 304q0 -119 -59 -210.5t-161 -91.5q-67 0 -172 141.5t-105 219.5q0 8 10.5 12.5t17.5 4.5q10 0 10 -7q0 -81 89 -206t150 -125q86 0 133 79t47 183q0 90 -35 152t-116 62q-44 0 -77.5 -29.5t-33.5 -72.5q0 -47 25 -81.5t68 -34.5q31 0 50 14t50 48q8 9 22.5 -4
t7.5 -22q-28 -35 -59 -55.5t-73 -20.5q-57 0 -94 47t-37 109q0 60 44 101t105 41q99 0 146 -74t47 -180z" />
    <glyph glyph-name="quotesingle" unicode="'" horiz-adv-x="10" 
d="M-135 682q0 -20 -14.5 -34.5t-33.5 -14.5q-20 0 -34.5 14.5t-14.5 34.5q0 19 14.5 33.5t34.5 14.5q19 0 33.5 -14.5t14.5 -33.5z" />
    <glyph glyph-name="parenleft" unicode="(" 
d="M532 398q-57 -41 -98.5 -67.5t-143.5 -88.5q-6 -3 -16.5 13.5t-4.5 20.5q53 32 114 69.5t115 82.5q8 7 23 -3t15 -20q0 -4 -4 -7zM515 59q-49 -31 -96.5 -49t-103.5 -18q-112 0 -195 65.5t-83 167.5q0 73 28.5 136t70.5 109.5t105 96.5q7 5 19 -4.5t12 -18.5
q0 -4 -59.5 -53.5t-97.5 -119.5t-38 -146q0 -86 71 -139.5t167 -53.5q53 0 96.5 15t81.5 44q7 5 16.5 -5t9.5 -19q0 -5 -4 -8z" />
    <glyph glyph-name="parenright" unicode=")" 
d="M509 291q0 -106 -65.5 -178.5t-163.5 -72.5q-88 0 -158.5 62.5t-70.5 152.5q0 109 70 180t168 71q80 0 150 -67t70 -148zM469 291q0 65 -57 120t-122 55q-83 0 -141 -59t-58 -152q0 -75 57.5 -125t131.5 -50q80 0 134.5 61.5t54.5 149.5z" />
    <glyph glyph-name="asterisk" unicode="*" 
d="M464 52q-50 -29 -80.5 -44.5t-99.5 -15.5q-80 0 -134 37.5t-54 118.5q0 56 53 130t126 141t157 129q13 10 26 -3.5t6 -18.5q-111 -88 -217 -205.5t-106 -176.5t32 -83.5t88 -24.5q46 0 97.5 13t85.5 41q6 6 15 -6t9 -23q0 -6 -4 -9z" />
    <glyph glyph-name="plus" unicode="+" horiz-adv-x="408" 
d="M275 393q0 70 -23 106.5t-99 36.5q-27 0 -41 -24t-14 -57q1 -9 1 -13q3 -35 40.5 -49t87.5 -14q27 0 45 4q3 6 3 10zM156 210q38 19 70 55.5t42 75.5q-73 0 -141 21t-68 80q-1 8 -1 11q0 49 26.5 86t68.5 37q100 0 131 -46.5t31 -136.5q0 -62 -35.5 -128.5t-108.5 -90.5
q11 -31 20 -50t29.5 -40.5t34.5 -31.5t37 -10q42 0 70 25q6 5 12 -4t6 -21q0 -9 -8 -19t-29.5 -15.5t-52.5 -5.5q-32 0 -50.5 12t-45 39t-33.5 41t-28 68l-17.5 -5t-16.5 -3q-14 0 -30 10.5t-28.5 27t-12.5 32.5q0 11 8 21q12 12 28 12q9 0 17.5 -2.5t32.5 -11t42 -33.5z
" />
    <glyph glyph-name="comma" unicode="," horiz-adv-x="210" 
d="M126 28q0 -39 -32.5 -85.5t-55.5 -46.5l-8 8q15 6 27.5 18t17.5 24.5t7 28t4 23.5q-16 4 -31 11t-15 29t13 37t35 15q20 0 29 -18t9 -44z" />
    <glyph glyph-name="hyphen" unicode="-" horiz-adv-x="587" 
d="M89 350q-38 40 -54 61t-16 53q0 7 5 30t27.5 43.5t48 29t44 10.5t36.5 2q27 0 42.5 -1t29.5 -4q15 0 15 -25t-15 -25q-7 2 -25 4.5t-45 2.5q-19 0 -35.5 -2t-42 -11.5t-31 -29t-5.5 -23v-4.5q0 -22 19.5 -41.5t38.5 -36.5l32 15q20 9 47.5 11t50.5 3q12 2 12 -16
q0 -12 -5.5 -22.5t-18 -11t-30 -1.5t-45.5 -13t-51 -41t-23 -63v-16q3 -8 8.5 -27.5t38 -36t74.5 -16.5q17 0 45 4.5t45 21t62 70.5v299q0 15 25 15t25 -15v-420q0 -34 19 -60.5t48 -22.5q22 3 36 21.5t21 29.5q8 8 22 -4t14 -25q0 -6 -4 -9q-15 -19 -35.5 -39t-35.5 -22.5
t-24 -2.5q-46 0 -78.5 41t-32.5 93v42q-25 -27 -49 -42.5t-52.5 -20t-49.5 -4.5q-60 0 -105 26t-56 63t-11 58q0 29 11.5 56t32.5 49z" />
    <glyph glyph-name="hyphen" unicode="&#xad;" horiz-adv-x="587" 
d="M89 350q-38 40 -54 61t-16 53q0 7 5 30t27.5 43.5t48 29t44 10.5t36.5 2q27 0 42.5 -1t29.5 -4q15 0 15 -25t-15 -25q-7 2 -25 4.5t-45 2.5q-19 0 -35.5 -2t-42 -11.5t-31 -29t-5.5 -23v-4.5q0 -22 19.5 -41.5t38.5 -36.5l32 15q20 9 47.5 11t50.5 3q12 2 12 -16
q0 -12 -5.5 -22.5t-18 -11t-30 -1.5t-45.5 -13t-51 -41t-23 -63v-16q3 -8 8.5 -27.5t38 -36t74.5 -16.5q17 0 45 4.5t45 21t62 70.5v299q0 15 25 15t25 -15v-420q0 -34 19 -60.5t48 -22.5q22 3 36 21.5t21 29.5q8 8 22 -4t14 -25q0 -6 -4 -9q-15 -19 -35.5 -39t-35.5 -22.5
t-24 -2.5q-46 0 -78.5 41t-32.5 93v42q-25 -27 -49 -42.5t-52.5 -20t-49.5 -4.5q-60 0 -105 26t-56 63t-11 58q0 29 11.5 56t32.5 49z" />
    <glyph glyph-name="period" unicode="." horiz-adv-x="325" 
d="M254 51q0 -21 -16 -37t-37 -16t-37 16t-16 37t15.5 37.5t37.5 16.5q21 0 37 -16t16 -38z" />
    <glyph glyph-name="slash" unicode="/" horiz-adv-x="772" 
d="M111 263q-11 16 -30 16q-8 0 -11 -5.5t1 -9.5q7 -7 17 -7q4 0 11 2t12 4zM408 341q1 11 -3 21t-8 8q-7 -3 -2 -14t13 -15zM568 345v199q0 12 20 12t20 -12v-400q0 -60 9 -87t43 -27q14 0 37 23t26 22q5 3 12 3q17 0 24.5 -6.5t1.5 -10.5q-20 -24 -45.5 -47.5t-55.5 -23.5
q-50 0 -71 40.5t-21 113.5v157q-18 -13 -28.5 -19t-21.5 -9q-16 -2 -24 -2q-11 0 -25.5 2t-25.5 4q-15 -64 -54.5 -113.5t-95.5 -49.5q-45 0 -74.5 18.5t-53.5 45t-27 31.5t-9 19q-8 -2 -22.5 -5t-22.5 -3q-27 0 -41 14.5t-14 38.5q0 20 12 33t39 13q15 0 28.5 -8t32.5 -36
q38 17 69 60.5t31 81.5q0 56 -24.5 88.5t-69.5 32.5q-24 0 -48 -11t-45 -24q-10 -4 -18.5 5.5t-8.5 20.5q0 4 14 12t45.5 22.5t60.5 14.5q62 0 98 -42t36 -119q0 -44 -37 -97.5t-81 -78.5l14 -17q33 -37 57 -53.5t59 -16.5q44 0 73.5 45t38.5 97q-15 10 -22.5 15.5t-16.5 20
t-9 35.5q0 18 10 30.5t35 12.5q27 0 39 -18.5t12 -42.5q0 -7 -1 -17t-2 -18q14 -3 19 -3.5t15 -0.5q12 0 27 2.5t33 16.5t24 16z" />
    <glyph glyph-name="zero" unicode="0" 
d="M157 310q12 14 45.5 29.5t58.5 15.5q26 0 32 -11t6 -20q0 -19 -25.5 -34.5t-56.5 -22.5q-12 -4 -27 -4q-12 0 -24 3q-52 -44 -52 -109q0 -52 47.5 -90.5t104.5 -38.5q76 0 127 60t51 141q0 64 -32.5 120t-82.5 136q-30 43 -59 86q-30 50 -30 105q0 50 27.5 87t73.5 37
q62 0 118 -24.5t100 -49.5q2 -12 -8 -20t-22 -8q-38 21 -85.5 41.5t-100.5 20.5q-30 0 -46.5 -25t-16.5 -59q0 -49 28 -93q27 -38 55 -76q51 -83 70.5 -116t35 -75t15.5 -85q0 -98 -62.5 -169.5t-155.5 -71.5q-72 0 -132 49t-60 116q0 79 53 132q-37 26 -73 64.5t-36 67.5
q0 39 41 78t87 54q7 3 16 -7t9 -19q0 -6 -20.5 -14t-56.5 -30t-36 -60q0 -28 30 -58t69 -53z" />
    <glyph glyph-name="one" unicode="1" horiz-adv-x="282" 
d="M132 686v-532q0 -12 -20 -12t-20 12v532q0 12 20 12t20 -12zM163 51q0 -21 -16 -37t-37 -16t-37 16t-16 37t15.5 37.5t37.5 16.5q21 0 37 -16t16 -38z" />
    <glyph glyph-name="two" unicode="2" horiz-adv-x="406" 
d="M363 85q-33 -25 -89.5 -49t-93.5 -24q-63 0 -111 42t-48 104q0 56 33 93.5t106 86.5t96 68.5t23 59.5q0 33 -25.5 51t-63.5 18q-29 0 -55 -9.5t-47 -23.5q-6 -4 -15 6.5t-9 19.5q0 5 19 17.5t45 21t62 8.5q53 0 91 -30t38 -79q0 -58 -42 -92t-103 -75.5t-87 -68
t-26 -72.5t35.5 -76t83.5 -30q35 0 87 22.5t74 44.5q6 6 16 -4.5t10 -20.5q0 -6 -4 -9z" />
    <glyph glyph-name="three" unicode="3" horiz-adv-x="460" 
d="M248 319q-62 -23 -124 -58t-62 -101q0 -51 38 -85t93 -34q69 0 119 49t50 118q0 41 -32 65.5t-82 45.5zM209 344q-40 29 -62.5 57t-22.5 60q0 49 58 86t90 37q8 0 12.5 -10t4.5 -17q0 -10 -27 -15t-62.5 -23.5t-35.5 -55.5q0 -35 33 -60.5t71.5 -49.5t79.5 -49
q54 -44 54 -96q0 -86 -61.5 -146.5t-147.5 -60.5q-72 0 -121.5 45.5t-49.5 113.5q0 74 54.5 116.5t132.5 67.5z" />
    <glyph glyph-name="four" unicode="4" horiz-adv-x="470" 
d="M422 126q0 -45 -33 -79t-75 -34q-72 0 -129 43.5t-93 99t-71 130.5q-3 8 6.5 16.5t19.5 8.5q6 0 39.5 -71.5t82.5 -129.5t145 -58q26 0 47 22t21 52q0 71 -53 129.5t-108 118.5q0 12 17.5 36t45 60.5t38.5 48.5t16 12q11 0 20.5 -9.5t3.5 -17.5q-27 -33 -52 -66
t-35.5 -47t-12 -18t-1.5 -8q63 -58 112 -113.5t49 -125.5z" />
    <glyph glyph-name="five" unicode="5" horiz-adv-x="458" 
d="M295 73q28 15 45.5 40t17.5 55t-17.5 52t-45.5 22q-31 0 -53.5 -20.5t-22.5 -49.5q0 -33 32.5 -59t43.5 -40zM255 59q-37 34 -56.5 55.5t-19.5 52.5q0 50 34.5 82.5t81.5 32.5q43 0 73 -34t30 -80q0 -69 -58 -111.5t-135 -42.5q-76 0 -130.5 55.5t-54.5 133.5
q0 69 39.5 99.5t134 84t94.5 87.5q0 36 -19 52t-51 16q-26 0 -38 -5q-12 -7 -19 -11q-16 -8 -28.5 4.5t-5.5 17.5q38 23 49.5 28.5t41.5 5.5q51 0 80.5 -25t29.5 -83q0 -52 -67 -88.5t-131 -70.5q-70 -46 -70 -114q0 -61 43 -104t104 -43q29 0 48 5z" />
    <glyph glyph-name="six" unicode="6" horiz-adv-x="660" 
d="M376 389q0 -64 -32 -113.5t-87 -49.5q-47 0 -76.5 28.5t-52.5 77.5q-3 7 7 15t19 8q7 0 19 -23t27 -44.5t55 -21.5t60.5 37.5t20.5 87.5q0 53 -29.5 98t-68.5 45q-15 0 -32 -9.5t-30 -16.5q-9 -3 -18 5t-9 19q0 5 17 23.5t72 18.5q53 0 95.5 -57.5t42.5 -127.5zM355 40
q0 -36 -35 -56.5t-65 -16.5q-42 6 -74.5 18.5t-49 25.5t-16.5 19q0 9 10.5 18.5t17.5 4.5q60 -38 118 -46q18 -3 36 5t18 28q0 57 -106 102t-173 73v182v148q0 12 20 12t20 -12v-304q170 -75 224.5 -116t54.5 -85zM547 30q14 0 37 23t26 22q5 3 12 3q17 0 24.5 -6.5
t1.5 -10.5q-20 -24 -45.5 -47.5t-55.5 -23.5q-48 0 -70 31.5t-22 77.5v446q0 12 20 12t20 -12v-420q0 -44 9.5 -69.5t42.5 -25.5z" />
    <glyph glyph-name="seven" unicode="7" horiz-adv-x="764" 
d="M304 314q-6 2 -13 3.5t-19 1.5q-21 0 -31 -7q9 -4 20 -4q14 1 22 1zM346 336q24 17 38.5 38t14.5 46q0 54 -31 83t-78 29q-26 0 -47.5 -10.5t-34.5 -17.5q-8 -4 -17 5.5t-9 19.5q0 6 12 16t37 18.5t59 8.5q64 0 106.5 -39t42.5 -113q0 -30 -17.5 -57.5t-46.5 -50.5
q31 -33 48 -77t17 -77q0 -64 -48.5 -114.5t-112.5 -50.5q-123 0 -191.5 108.5t-68.5 258.5q0 179 68.5 311t223.5 132q126 0 207 -62t81 -204l3 -444q0 -28 16.5 -45.5t46.5 -17.5q20 0 32 16q14 25 24 40l34 -22q-15 -22 -29 -43q-23 -31 -59 -31q-49 0 -77 28t-28 75
l-3 444q0 121 -70 173.5t-178 52.5q-137 0 -194.5 -118.5t-57.5 -284.5q0 -136 55.5 -231.5t164.5 -95.5q49 0 85 38t36 87q0 29 -14.5 67.5t-42.5 64.5q-37 -21 -58 -21q-28 0 -50.5 11t-22.5 28q0 20 17.5 35.5t42.5 15.5q39 0 74 -23z" />
    <glyph glyph-name="eight" unicode="8" horiz-adv-x="540" 
d="M304 314q-6 2 -13 3.5t-19 1.5q-21 0 -31 -7q9 -4 20 -4q14 1 22 1zM311 763q-137 0 -194.5 -118.5t-57.5 -284.5q0 -136 55.5 -231.5t164.5 -95.5q49 0 85 38t36 87q0 29 -14.5 67.5t-42.5 64.5q-37 -21 -58 -21q-28 0 -50.5 11t-22.5 28q0 20 17.5 35.5t42.5 15.5
q39 0 74 -23q24 17 38.5 38t14.5 46q0 54 -31 83t-78 29q-46 0 -82 -28q-7 -5 -16.5 5.5t-9.5 19.5q0 6 13.5 16t37 18.5t57.5 8.5q64 0 106.5 -39t42.5 -113q0 -30 -17.5 -57.5t-46.5 -50.5q31 -33 48 -77t17 -77q0 -64 -48.5 -114.5t-112.5 -50.5q-123 0 -191.5 108.5
t-68.5 258.5q0 179 68.5 311t223.5 132q12 0 12 -22q0 -18 -12 -18z" />
    <glyph glyph-name="nine" unicode="9" horiz-adv-x="560" 
d="M207 301l20 5q29 4 36.5 6t3.5 9q-3 6 -10 6q-9 0 -21 -7t-29 -19zM152 311l22 16q18 12 43.5 21t47.5 9q29 0 35.5 -12.5t6.5 -20.5q0 -16 -17 -29.5t-42 -23.5t-52 -10q-16 0 -36 5q-22 -20 -34.5 -41.5t-12.5 -48.5q0 -62 44 -103t110 -41q73 0 124 54t51 127
q0 68 -22.5 119.5t-70.5 121t-79.5 133t-31.5 97.5q0 60 56.5 99.5t109.5 39.5q6 0 10 -7t4 -16q0 -14 -35 -23.5t-70 -29.5t-35 -63q0 -30 28 -84.5t77.5 -125.5t74 -128t24.5 -133q0 -90 -62.5 -155.5t-152.5 -65.5q-82 0 -138 54t-56 132q0 31 13 57t35 48
q-41 26 -71.5 69t-30.5 74q0 29 32.5 64.5t93.5 62.5q8 3 15.5 -5.5t7.5 -19.5q0 -8 -23 -21t-54.5 -33.5t-31.5 -47.5q0 -26 28 -61.5t65 -53.5z" />
    <glyph glyph-name="colon" unicode=":" horiz-adv-x="210" 
d="M150 402q0 -21 -15.5 -37.5t-37.5 -16.5t-38 16t-16 38q0 21 16 37t38 16q21 0 37 -16t16 -37zM150 149q0 -21 -16 -37t-37 -16t-37.5 15.5t-16.5 37.5q0 21 16 37t38 16q21 0 37 -16t16 -37z" />
    <glyph glyph-name="semicolon" unicode=";" horiz-adv-x="210" 
d="M139 277q0 -21 -15.5 -37.5t-37.5 -16.5q-21 0 -37 16t-16 38q0 21 16 37t37 16t37 -16t16 -37zM137 35q0 -50 -43 -94.5t-56 -44.5l-8 8q15 6 27.5 18t17.5 24.5t7 28t4 23.5q-18 4 -35.5 11.5t-17.5 28.5q0 37 13 50t42 13q49 0 49 -66z" />
    <glyph glyph-name="less" unicode="&#x3c;" horiz-adv-x="10" 
d="M-3 789q4 -3 4 -9q0 -11 -9 -20t-17 -5q-9 5 -22.5 9t-27.5 4q-43 0 -63 -24.5t-20 -62.5q0 -22 7.5 -49t15.5 -54q0 -6 -7.5 -13.5t-19.5 -7.5q-9 0 -16 20.5t-13.5 42.5t-6.5 63q0 54 29 89.5t92 35.5h21q16 0 27.5 -3.5t25.5 -15.5zM-5 662q0 -16 -11.5 -27.5
t-26.5 -11.5q-16 0 -27.5 11.5t-11.5 27.5q0 15 11.5 26.5t27.5 11.5q15 0 26.5 -11.5t11.5 -26.5z" />
    <glyph glyph-name="equal" unicode="=" horiz-adv-x="642" 
d="M631 61q-21 -36 -41.5 -55.5t-45.5 -19.5q-51 0 -78.5 27.5t-27.5 70.5v460q0 12 21 12q19 0 19 -12v-460q0 -25 17.5 -41.5t48.5 -16.5q14 0 24 12t19 27.5t19 15.5t19.5 -6.5t5.5 -13.5zM275 393q0 70 -23 106.5t-99 36.5q-27 0 -41 -24t-14 -57q1 -9 1 -13
q3 -35 40.5 -49t87.5 -14q27 0 45 4q3 6 3 10zM156 210q38 19 70 55.5t42 75.5q-73 0 -141 21t-68 80q-1 8 -1 11q0 49 26.5 86t68.5 37q100 0 131 -46.5t31 -136.5q0 -62 -35.5 -128.5t-108.5 -90.5q11 -31 20 -50t29.5 -40.5t34.5 -31.5t37 -10q42 0 70 25q6 5 12 -4
t6 -21q0 -9 -8 -19t-29.5 -15.5t-52.5 -5.5q-32 0 -50.5 12t-45 39t-33.5 41t-28 68l-17.5 -5t-16.5 -3q-14 0 -30 10.5t-28.5 27t-12.5 32.5q0 11 8 21q12 12 28 12q9 0 17.5 -2.5t32.5 -11t42 -33.5z" />
    <glyph glyph-name="greater" unicode="&#x3e;" horiz-adv-x="582" 
d="M374 285l-260 -176l-22 34l275 183q-39 34 -103.5 67.5t-110.5 33.5q-35 0 -56.5 -10.5t-57.5 -35.5l-22 34q38 25 66.5 38.5t69.5 13.5q54 0 116.5 -31.5t104.5 -68.5v176q0 12 20 12t20 -12v-459q0 -25 17.5 -41.5t48.5 -16.5q14 0 24 12t19 27.5t19 15.5t19.5 -6.5
t5.5 -13.5q-21 -36 -41.5 -55.5t-45.5 -19.5q-51 0 -78.5 27.5t-27.5 70.5v201z" />
    <glyph glyph-name="question" unicode="?" horiz-adv-x="392" 
d="M326 588q0 -58 -39 -105q-41 -44 -81 -87q-38 -46 -54.5 -84.5t-16.5 -66.5q0 -23 8 -40q9 -15 19 -29h-16q-7 20 -17.5 53t-10.5 55q0 29 16.5 65t57.5 80.5t70 74.5q30 38 30 94q0 53 -33.5 88.5t-90.5 35.5q-40 0 -59 -16.5t-31 -33.5q19 0 32.5 -12.5t13.5 -33.5
q0 -16 -13 -28t-31 -12q-42 0 -42 48q0 39 44 70.5t90 31.5q62 0 108 -43t46 -105zM207 51q0 -22 -15.5 -37.5t-37.5 -15.5q-21 0 -37 16t-16 37t15.5 37.5t37.5 16.5q21 0 37 -16t16 -38z" />
    <glyph glyph-name="at" unicode="@" 
d="M206 229q-5 11 -11 20.5t-20 13.5q-8 2 -17 -3t-9 -12q-1 -6 5 -9.5t20 -6.5t32 -3zM238 233q54 10 85.5 51t31.5 97q0 69 -44 110t-110 41q-26 0 -52.5 -9t-54.5 -19q-10 0 -17.5 8.5t-7.5 17.5q0 7 14 15.5t45.5 17.5t72.5 9q83 0 138.5 -51.5t55.5 -139.5
q0 -69 -39 -120t-104 -67l16 -46q19 -47 45.5 -81t55.5 -34q32 0 50.5 5t43.5 19q7 4 16 -4t9 -18q0 -4 -14 -15.5t-39 -18t-66 -6.5q-39 0 -76.5 40.5t-53 80t-22.5 73.5q-23 0 -50.5 5.5t-40.5 18.5t-13 35q0 23 16.5 35.5t42.5 12.5q22 0 38 -17t28 -46z" />
    <glyph glyph-name="A" unicode="A" horiz-adv-x="772" 
d="M111 263q-11 16 -30 16q-8 0 -11 -5.5t1 -9.5q7 -7 17 -7q4 0 11 2t12 4zM408 341q1 11 -3 21t-8 8q-7 -3 -2 -14t13 -15zM568 345v199q0 12 20 12t20 -12v-400q0 -60 9 -87t43 -27q14 0 37 23t26 22q5 3 12 3q17 0 24.5 -6.5t1.5 -10.5q-20 -24 -45.5 -47.5t-55.5 -23.5
q-50 0 -71 40.5t-21 113.5v157q-18 -13 -28.5 -19t-21.5 -9q-16 -2 -24 -2q-11 0 -25.5 2t-25.5 4q-15 -64 -54.5 -113.5t-95.5 -49.5q-45 0 -74.5 18.5t-53.5 45t-27 31.5t-9 19q-8 -2 -22.5 -5t-22.5 -3q-27 0 -41 14.5t-14 38.5q0 20 12 33t39 13q15 0 28.5 -8t32.5 -36
q38 17 69 60.5t31 81.5q0 56 -24.5 88.5t-69.5 32.5q-24 0 -48 -11t-45 -24q-10 -4 -18.5 5.5t-8.5 20.5q0 4 14 12t45.5 22.5t60.5 14.5q62 0 98 -42t36 -119q0 -44 -37 -97.5t-81 -78.5l14 -17q33 -37 57 -53.5t59 -16.5q44 0 73.5 45t38.5 97q-15 10 -22.5 15.5t-16.5 20
t-9 35.5q0 18 10 30.5t35 12.5q27 0 39 -18.5t12 -42.5q0 -7 -1 -17t-2 -18q14 -3 19 -3.5t15 -0.5q12 0 27 2.5t33 16.5t24 16z" />
    <glyph glyph-name="B" unicode="B" horiz-adv-x="418" 
d="M290 324l2 10v14q0 20 -10 20t-10 -20q0 -8 7 -14.5t11 -9.5zM284 284q-21 11 -36.5 27.5t-15.5 36.5q0 25 13.5 42.5t36.5 17.5q22 0 35 -23.5t13 -50.5l-1 -23q14 -3 31 -3q7 0 22.5 2.5t32.5 7.5t28 11q8 4 15 -5t7 -20q0 -7 -8.5 -15t-24 -11.5t-35.5 -6t-28 -3
t-13 -0.5q-18 0 -35 3q-15 -54 -51.5 -89.5t-88.5 -35.5q-69 0 -114.5 61t-45.5 141q0 74 45.5 128t108.5 89q8 4 17 -5t9 -20q0 -6 -34.5 -28t-70 -61t-35.5 -103t33 -113t87 -49q38 0 65 28t38 70z" />
    <glyph glyph-name="C" unicode="C" horiz-adv-x="382" 
d="M109 282q-5 11 -11.5 17.5t-17.5 6.5q-12 0 -12 -10q0 -8 8 -11.5t20 -3.5zM147 294q43 21 76 65.5t33 78.5q0 55 -31 77t-83 22q-26 0 -50 -11q-26 -15 -37 -20q-8 -4 -17 6t-9 20q0 5 26 19.5t39.5 20t47.5 5.5q70 0 112 -31t42 -108q0 -40 -40 -95.5t-92 -83.5
q22 -33 56.5 -58t65.5 -25q34 0 69 27q26 22 53 45q9 7 22.5 -6.5t5.5 -21.5q-43 -45 -73.5 -64.5t-76.5 -19.5q-41 0 -88 33t-71 76q-15 -4 -31 -4q-26 0 -47 15.5t-21 39.5q0 20 16 35t36 15q23 0 38.5 -13.5t28.5 -38.5z" />
    <glyph glyph-name="D" unicode="D" horiz-adv-x="408" 
d="M184 291q22 -1 32 -1q6 0 21.5 3t19 4.5t5.5 7.5q-5 5 -12 5q-6 0 -19 -2t-24.5 -7t-22.5 -10zM296 103q18 13 18 33q0 16 -7 16q-6 0 -11.5 -4.5t-5.5 -9.5q0 -17 6 -35zM259 85q-9 27 -9 53q0 18 18 36t37 18q21 0 35 -17t14 -39q0 -40 -43 -68l8 -13q8 -12 23 -32.5
t29 -38.5l-32 -24q-20 25 -31 39.5t-23 33.5l-10 17q-33 -11 -65 -11q-65 0 -111.5 46.5t-46.5 100.5q0 29 12 53.5t34 44.5q-29 25 -50.5 62.5t-21.5 73.5q0 40 34 61t92 38q34 5 66.5 11.5t32.5 19.5q0 3 -4 4.5t-7 3.5l24 32q12 -9 19.5 -20t7.5 -24q0 -33 -55.5 -47.5
t-95.5 -25t-57 -17.5t-17 -36q0 -30 18.5 -59.5t45.5 -50.5q22 12 46.5 20.5t39.5 11.5t19 3h6q27 0 48 -13.5t21 -24.5q0 -12 -18.5 -28t-39.5 -20.5t-34.5 -6.5t-25.5 -2q-24 0 -33.5 2t-26.5 10q-20 -15 -30 -33t-10 -43q0 -38 35.5 -72.5t82.5 -34.5q25 0 49 6z" />
    <glyph glyph-name="E" unicode="E" horiz-adv-x="10" 
d="M-139 582q3 -7 -7.5 -16t-19.5 -9q-6 0 -34.5 70.5t-67 115t-69 54t-37.5 9.5q-8 0 -16.5 -3t-14.5 -5q-8 -3 -16 7t-8 20q0 7 9.5 9.5t22 5t26.5 2.5q17 0 58 -13.5t87 -82t87 -164.5zM-207 559q3 -3 3 -9q0 -11 -9.5 -20.5t-17.5 -2.5q-86 80 -128 111t-94 31
q-25 0 -34.5 -4.5t-20.5 -9.5q-8 -3 -16 6.5t-8 19.5q0 7 10 11.5t24 11.5q15 5 45 5q56 0 98 -30t148 -120z" />
    <glyph glyph-name="F" unicode="F" horiz-adv-x="428" 
d="M129 121q-14 16 -25 25t-18 9l-5 -9q0 -25 48 -25zM240 344q-39 -20 -89 -43.5t-80 -34.5q-7 -3 -13.5 5.5t-6.5 19.5q0 7 11 17t49.5 28t82.5 34q-46 25 -76.5 51t-30.5 62q0 40 56 69.5t107 29.5q13 0 23.5 -3t10.5 -19q0 -19 -28.5 -23t-73.5 -10q-55 -13 -55 -44
q0 -37 47 -65q34 -17 68 -33q13 0 60 1.5t79 2.5q38 0 60.5 -2.5t22.5 -19.5q0 -18 -10.5 -21t-27.5 -4t-20 -1q-24 0 -65 3.5t-49 3.5q37 -34 63.5 -72t26.5 -67q0 -62 -48.5 -93.5t-120.5 -31.5q34 -38 54 -61t37 -48q4 -7 -6.5 -16.5t-19.5 -9.5q-5 0 -26 28.5t-42.5 57
t-41.5 51.5q-51 6 -89 20.5t-38 39.5q0 26 14.5 38.5t30.5 12.5q24 0 49 -21.5t46 -53.5q54 0 107.5 19.5t53.5 67.5q0 32 -29 68t-73 67z" />
    <glyph glyph-name="G" unicode="G" horiz-adv-x="398" 
d="M325 366q0 -77 -36 -132t-103 -55q-63 0 -101 43.5t-73 119.5q-3 7 6 14t20 7q7 0 29.5 -43.5t44.5 -72t74 -28.5q50 0 74.5 43t24.5 104q0 73 -32 124.5t-95 51.5q-26 0 -39 -4t-37 -18q-8 -5 -19.5 3.5t-11.5 17.5q0 4 15 16.5t33.5 18.5t58.5 6q78 0 122.5 -64
t44.5 -152z" />
    <glyph glyph-name="H" unicode="H" horiz-adv-x="436" 
d="M441 308q-15 0 -29 -0.5t-27 -0.5q-74 0 -130.5 6.5t-68 20t-11.5 23.5q0 32 41.5 86.5t87.5 99.5l28 -28q-50 -44 -87.5 -80t-37.5 -57q0 -8 7.5 -16.5t37 -13t76.5 -4.5q25 0 52.5 1t58.5 3zM359 35q-4 8 -4 20q0 15 2.5 23.5t10.5 20.5t33 12q19 0 34 -11.5t15 -28.5
q0 -33 -62.5 -58t-128.5 -25q-74 0 -125 43.5t-79 104.5t-28 111q0 68 21.5 113.5t27.5 45.5q13 0 20.5 -10.5t4.5 -16.5q-15 -41 -23 -75.5t-8 -65.5q0 -39 22.5 -87.5t64.5 -85.5t104 -37h12q28 0 47.5 1.5t38.5 5.5z" />
    <glyph glyph-name="I" unicode="I" horiz-adv-x="240" 
d="M229 64q-19 -29 -37.5 -50.5t-59.5 -21.5q-40 0 -67.5 25t-27.5 88v561q0 39 -25.5 69t-62.5 30q-58 0 -88 -56.5t-30 -132.5q0 -12 -20 -12t-20 12q0 109 39.5 169t118.5 60q51 0 89.5 -42.5t38.5 -96.5v-561q0 -38 16 -55.5t39 -17.5q21 0 39 19q17 23 21.5 28t11.5 5
q10 0 19.5 -6.5t5.5 -13.5z" />
    <glyph glyph-name="J" unicode="J" horiz-adv-x="770" 
d="M447 396q-49 -42 -74 -81.5t-25 -88.5q0 -26 17.5 -44.5t33 -21.5t18.5 -3h4q33 0 51 38.5t18 84.5q0 61 -43 116zM207 525l-13 1q-56 0 -98 -34t-42 -86q0 -39 25.5 -67.5t63.5 -28.5q42 0 67.5 35t29 68t3.5 39q0 22 -8 38.5t-28 34.5zM421 425q-32 31 -75 54t-84 35
q10 -18 15 -33.5t5 -36.5q0 -13 -3.5 -48t-42 -80.5t-95.5 -45.5q-54 0 -90.5 39.5t-36.5 96.5q0 69 53.5 114.5t126.5 45.5q50 0 126 -32t130 -85l68 51q27 20 57.5 42t54.5 22q36 0 63 -58.5t27 -173.5q0 -140 -100.5 -237.5t-241.5 -97.5q-90 0 -201 62.5t-179 155.5
q-6 9 9.5 21.5t22.5 2.5q58 -79 162 -140.5t186 -61.5q125 0 213.5 85.5t88.5 209.5q0 80 -17 131.5t-38 51.5q-20 0 -43.5 -17.5t-39.5 -29.5l-65 -48q24 -29 38.5 -65.5t14.5 -74.5q0 -61 -30.5 -112.5t-80.5 -51.5q-5 0 -32.5 5.5t-53 34t-25.5 70.5q0 55 29.5 103
t83.5 96z" />
    <glyph glyph-name="K" unicode="K" horiz-adv-x="432" 
d="M258 304q54 -40 85.5 -77.5t31.5 -86.5q0 -62 -51 -105t-116 -43q-66 0 -104 14.5t-68.5 36.5t-30.5 29q0 10 8.5 19.5t15.5 6.5q38 -21 77 -42q50 -24 102 -24q49 0 88 31t39 77q0 37 -21 71t-89 84q-30 -20 -69 -44.5t-76 -41.5q-7 -3 -15.5 7t-8.5 19q0 7 20.5 17
t53.5 29t63 37q-35 28 -52 53t-17 58q0 39 27 67t92 72q7 4 15 -6t8 -20q0 -5 -8.5 -14.5t-51 -40t-42.5 -58.5t14 -51t39 -46q54 3 118.5 5.5t118.5 2.5q12 0 12 -20t-12 -20z" />
    <glyph glyph-name="L" unicode="L" horiz-adv-x="344" 
d="M380 328l-84 -24l-108 -24l-14 42q16 0 41 2.5t67 13l98 24.5v-34zM269 85q-7 -1 -21 -1q-81 0 -156.5 66.5t-75.5 155.5q0 93 76.5 156.5t159.5 85.5q7 1 11 -5t4 -16q0 -14 -29 -29.5t-77 -40.5q-105 -63 -105 -151q0 -76 68.5 -128.5t140.5 -52.5q6 0 10 -7t4 -16
q0 -16 -10 -17z" />
    <glyph glyph-name="M" unicode="M" horiz-adv-x="338" 
d="M360 282h-252q-9 0 -9 -3q6 -8 13 -15q7 -11 14 -21q1 2 3 5l1 242q0 35 -5 43.5t-19 8.5q-23 0 -39.5 -13t-29.5 -27q-10 -5 -20 6.5t-10 18.5q0 6 4 7q18 16 41 32t54 16q41 0 52 -19.5t11 -72.5v-242q0 -53 -26 -53q-13 0 -29 12t-28.5 26.5t-22.5 29.5t-10 28
q0 26 55 26l252 1q12 0 12 -18t-12 -18z" />
    <glyph glyph-name="N" unicode="N" horiz-adv-x="306" 
d="M124 340h-28q-16 0 -16 -19q0 -15 7 -23t16 -8q11 0 16 7t5 16v27zM157 340v-27q0 -29 -15 -42.5t-38 -13.5q-26 0 -41.5 18t-15.5 48q0 24 12.5 40.5t36.5 16.5h242v-40h-181z" />
    <glyph glyph-name="O" unicode="O" horiz-adv-x="249" 
d="M43 559q-42 105 -78.5 160.5t-74 67t-44.5 11.5q-8 0 -16.5 -3t-14.5 -5q-8 -3 -16 7t-8 20q0 7 9.5 9.5t22 5t26.5 2.5q17 0 50 -11t78 -68t64 -100.5t27.5 -62t8.5 -31.5l1 -438q0 -34 19 -60.5t48 -22.5q22 3 36 21.5t21 29.5q8 8 22 -4t14 -25q0 -6 -4 -9
q-15 -19 -35.5 -39t-35.5 -22.5t-24 -2.5q-46 0 -78.5 41t-32.5 93v401q-51 52 -114.5 98.5t-116.5 46.5q-25 0 -34.5 -4.5t-20.5 -9.5q-8 -3 -16 6.5t-8 19.5q0 7 10 11.5t24 11.5q15 5 45 5q56 0 98 -30t148 -120z" />
    <glyph glyph-name="P" unicode="P" horiz-adv-x="296" 
d="M344 230q-23 -21 -51 -33.5t-59 -12.5q-13 0 -45.5 4t-70 34t-37.5 80v212q0 11 -12.5 17.5t-26.5 6.5q-9 0 -16.5 -4.5t-13.5 -7.5q-10 -5 -23 7.5t-5 20.5q12 11 26 17.5t32 6.5q31 0 55 -18t24 -46v-212q0 -34 28 -53t51 -22t32 -3q27 0 50 10.5t38 27.5q8 8 20 -8
t4 -24z" />
    <glyph glyph-name="Q" unicode="Q" horiz-adv-x="324" 
d="M170 388q16 16 23.5 34.5t7.5 45.5q0 34 -21 59t-51 21q-25 -3 -40 -21t-15 -44q0 -34 24 -52.5t72 -42.5zM138 362q-47 27 -75.5 54t-28.5 69q0 40 24.5 68.5t64.5 34.5q8 1 12 1q44 0 75 -37t31 -84q0 -50 -22.5 -86t-77 -65.5t-75.5 -36.5q18 -43 59.5 -72t76.5 -29
q32 0 54 10t87 56q9 7 21.5 -8t4.5 -22q-40 -32 -79.5 -54t-87.5 -22q-49 0 -108 48.5t-77 121.5q47 12 75 26z" />
    <glyph glyph-name="R" unicode="R" horiz-adv-x="10" 
d="M-3 789q4 -3 4 -9q0 -11 -9 -20t-17 -5q-9 5 -22.5 9t-27.5 4q-43 0 -63 -24.5t-20 -62.5q0 -22 7.5 -49t15.5 -54q0 -6 -7.5 -13.5t-19.5 -7.5q-9 0 -16 20.5t-13.5 42.5t-6.5 63q0 54 29 89.5t92 35.5h21q16 0 27.5 -3.5t25.5 -15.5z" />
    <glyph glyph-name="S" unicode="S" horiz-adv-x="401" 
d="M104 234q-5 16 -19 16q-3 0 -8 -3t-4 -8q2 -10 15 -10q8 0 16 5zM288 352q15 -10 29 -17t29 -7q18 0 33.5 5.5t39.5 17.5q9 4 21 -9.5t5 -20.5q-15 -15 -39.5 -24.5t-49.5 -9.5q-11 0 -21 1.5t-24 7.5t-33 17q-16 -43 -53.5 -75.5t-77.5 -39.5q16 -49 33 -97
q32 -70 75 -70q29 0 38.5 5t33.5 21q9 6 16 -6t7 -20q0 -7 -15.5 -17.5t-30 -14.5t-49.5 -4q-39 0 -79 58t-55 134q-35 0 -59.5 15.5t-24.5 51.5q0 16 14.5 26t33.5 10t31 -13.5t21 -36.5q45 0 79 43t34 95q0 88 -27 125.5t-97 37.5q-16 0 -31 -10l-30 -20q-9 -5 -21 7
t-7 21q9 17 35 29.5t54 12.5q90 0 127 -47t37 -156z" />
    <glyph glyph-name="T" unicode="T" horiz-adv-x="312" 
d="M358 380q-4 1 -29.5 1h-43.5h-78t-61 -1q-32 0 -54 -24t-22 -58q0 -68 43 -143t112 -140q9 -8 -5.5 -23.5t-22.5 -6.5q-24 27 -61 70.5t-71.5 110t-34.5 132.5q0 50 33 86t83 36h59.5t77.5 1h52.5t25.5 -1.5t9 -21.5q0 -21 -12 -18z" />
    <glyph glyph-name="U" unicode="U" horiz-adv-x="10" 
d="M161 -291q4 -8 -5.5 -15.5t-20.5 -7.5q-7 0 -31 52t-94.5 132.5t-149.5 80.5q-42 0 -75 -21.5t-33 -58.5q0 -33 27 -48t66 -15q40 0 69 12q7 3 14 -7t7 -20q0 -8 -14.5 -10t-38 -4t-43.5 -2q-62 0 -94.5 20.5t-32.5 73.5q0 54 44.5 87t103.5 33q61 0 115.5 -39.5
t99.5 -102t86 -140.5z" />
    <glyph glyph-name="V" unicode="V" horiz-adv-x="284" 
d="M336 182q-31 -21 -65.5 -32t-62.5 -11q-79 0 -135.5 48t-56.5 123q0 67 56 113.5t123 46.5q52 0 62.5 -10.5t10.5 -18.5q0 -11 -7 -19.5t-15 -4.5q-11 5 -21 9t-30 4q-51 0 -95 -35.5t-44 -86.5q0 -57 45 -93t107 -36q15 0 63 19.5t49 19.5q7 1 14 -7.5t7 -18.5
q0 -7 -5 -10z" />
    <glyph glyph-name="W" unicode="W" horiz-adv-x="502" 
d="M320 293h-20q-12 0 -12 -3t9 -9t12 -11t7 -11q2 2 4 5v29zM320 333v133q0 34 -29.5 53t-68.5 19q-65 0 -115.5 -53.5t-50.5 -112.5q0 -90 45 -142.5t77 -84t32 -37.5q0 -12 -8.5 -21.5t-16.5 -3.5q-90 75 -129.5 149.5t-39.5 139.5q0 73 62 139.5t144 66.5q54 0 96 -31.5
t42 -80.5v-133h176q12 0 12 -20t-12 -20h-176v-29q0 -28 -7.5 -39.5t-21.5 -11.5t-29 10.5t-28 26.5t-25 31t-12 27t14 18.5t49 6.5h20z" />
    <glyph glyph-name="X" unicode="X" horiz-adv-x="382" 
d="M256 133q28 10 21 22q-9 14 -14 14q-9 0 -13 -13q-2 -7 1 -13zM235 476q0 30 -20 50t-49 20q-31 0 -52.5 -18.5t-21.5 -47.5q0 -22 20.5 -47.5t51.5 -46.5q33 23 52 44.5t19 45.5zM130 362q-34 26 -56 58.5t-22 59.5q0 45 33.5 75.5t80.5 30.5q45 0 77 -32t32 -78
q0 -26 -23.5 -50.5t-66.5 -53.5q43 -25 99 -25q36 0 62.5 11.5t60.5 36.5q7 6 16 -4t9 -22q0 -5 -30 -33.5t-116 -28.5q-77 0 -136 41q-41 -29 -66 -59.5t-25 -67.5q0 -47 33.5 -74.5t87.5 -27.5l39 3q-11 14 -11 27q0 5 5 21t18.5 27.5t32.5 11.5q16 0 27 -9t16.5 -18.5
t5.5 -17.5q0 -17 -13.5 -35t-35.5 -21l69 -122q3 -7 -6.5 -15.5t-18.5 -8.5q-6 0 -9 4l-71 123q-27 -10 -48 -10q-71 0 -116 39t-45 103q0 32 21.5 63t89.5 78z" />
    <glyph glyph-name="Y" unicode="Y" horiz-adv-x="306" 
d="M354 245q-41 -27 -67 -41t-82 -14q-71 0 -127 59t-56 119q44 7 82 43t38 77q0 23 -17 38t-40 15q-13 0 -26 -8q-6 -4 -12 6t-6 21q0 10 9 12t22 2q42 0 76 -23.5t34 -62.5q0 -45 -38 -89.5t-80 -61.5q10 -37 51.5 -72t89.5 -35q37 0 65 13t62 36q8 5 17 -5t9 -21
q0 -5 -4 -8z" />
    <glyph glyph-name="Z" unicode="Z" horiz-adv-x="596" 
d="M335 303l3 -38q0 -100 -42.5 -176.5t-124.5 -76.5q-67 0 -103.5 56.5t-57.5 135.5q-3 13 19 13q18 0 32.5 -46.5t36 -82.5t73.5 -36q65 0 96 64t31 147q0 79 -39 139t-107 60q-21 0 -41.5 -12t-43.5 -27q-8 -3 -16 6t-8 19q0 6 18 20t37 24t54 10q65 0 110 -44t64 -113
q31 17 55.5 25t42.5 8q67 0 103.5 -45t36.5 -111q0 -74 -39 -126.5t-88 -84.5q-10 -6 -19.5 5t-9.5 18q0 4 33 29.5t58 59.5t25 99q0 49 -26 82.5t-74 33.5q-17 0 -41.5 -9.5t-47.5 -25.5z" />
    <glyph glyph-name="bracketleft" unicode="[" horiz-adv-x="696" 
d="M338 358q4 10 4 15q0 14 -2 21.5t-9 7.5q-15 0 -15 -12q0 -11 5.5 -18.5t16.5 -13.5zM496 365v179q0 12 20 12t20 -12v-462q0 -22 16 -37t39 -15q20 0 33.5 11.5t26.5 33.5q6 10 19.5 -3.5t6.5 -22.5q-28 -39 -41 -49t-47 -10q-38 0 -65.5 26.5t-27.5 65.5v241
q-17 -7 -34 -13t-36 -6q-13 0 -27.5 1t-27.5 4q-15 -69 -58.5 -111.5t-100.5 -42.5q-60 0 -95 30t-35 79v248q0 18 -10.5 24t-28.5 6q-20 0 -30 -18l-22 6q-16 17 -6 24q23 16 32.5 22t23.5 6q38 0 59.5 -14t21.5 -56v-248q0 -32 24.5 -50.5t65.5 -18.5q44 0 76.5 35
t44.5 92q-27 11 -42 28t-15 40q0 19 16.5 35.5t36.5 16.5q22 0 35.5 -21t13.5 -47l-1 -27q6 -3 14.5 -5t21.5 -2h11q17 0 35.5 8.5t36.5 16.5z" />
    <glyph glyph-name="backslash" unicode="\" horiz-adv-x="630" 
d="M621 60q-30 -38 -49.5 -54t-50.5 -16q-40 0 -67.5 30.5t-27.5 71.5v402q0 26 -19 44t-45 18q-40 0 -63 -35t-23 -127v-47q0 -111 -26.5 -148t-79.5 -37q-67 0 -108.5 56t-41.5 130q0 86 26 126.5t69 92.5q8 9 23 -4.5t7 -23.5q-45 -59 -65 -88.5t-20 -102.5
q0 -57 30 -101.5t80 -44.5q41 0 55.5 26t14.5 72q0 16 -2 54.5t-2 39.5q0 84 28.5 143t97.5 59q43 0 73.5 -29.5t30.5 -72.5v-402q0 -25 16.5 -43.5t40.5 -18.5q19 0 34 15q18 23 25.5 30.5t13.5 7.5q11 0 20.5 -8.5t4.5 -14.5z" />
    <glyph glyph-name="bracketright" unicode="]" horiz-adv-x="618" 
d="M519 264q19 59 19 120q0 64 -24.5 113t-73.5 49q-40 0 -68.5 -32.5t-28.5 -75.5q0 -71 50.5 -122.5t125.5 -51.5zM102 288q-36 31 -56.5 62.5t-20.5 64.5q0 53 39 93.5t88 55.5q8 3 15.5 -5.5t7.5 -19.5q0 -8 -19 -20.5t-52 -34.5q-39 -31 -39 -69q0 -28 17.5 -49.5
t54.5 -52.5q32 30 84 30q7 0 11.5 -7.5t4.5 -17.5q0 -13 -32.5 -19t-77.5 -38.5t-45 -84.5q0 -59 52.5 -93.5t119.5 -34.5q76 0 144 47.5t106 129.5q-88 8 -144.5 68.5t-56.5 144.5q0 60 39.5 104t97.5 44q64 0 101 -61.5t37 -140.5q0 -163 -99 -269.5t-225 -106.5
q-84 0 -148 46t-64 122q0 33 16 61.5t44 50.5z" />
    <glyph glyph-name="asciicircum" unicode="^" 
d="M392 245q18 0 23 4t5 13q0 8 -6 8q-18 0 -22 -25zM348 208q-4 -1 -13 -1q-57 0 -128 53t-71 118q0 82 57 141t139 59q39 0 62 -8.5t46.5 -21.5t23.5 -20q0 -10 -7.5 -19.5t-15.5 -6.5q-14 5 -45.5 20.5t-63.5 15.5q-66 0 -111 -47t-45 -113q0 -57 54 -93.5t118 -36.5
q0 24 20 43t46 19q18 0 32 -15t14 -33q0 -24 -18 -36t-50 -16q0 -84 -32.5 -150t-116.5 -66q-7 0 -15 1t-27 3t-53 7t-48 14.5t-14 17.5q0 9 7.5 18.5t15.5 6.5q30 -10 56 -16.5t49 -9t30 -2.5q62 0 83 50t21 124z" />
    <glyph glyph-name="underscore" unicode="_" horiz-adv-x="334" 
d="M81 371q-23 24 -39 56.5t-16 55.5q0 34 21.5 59.5t54.5 25.5h118q11 0 11 -19q0 -20 -15.5 -22t-45.5 -2q-39 0 -49.5 0.5t-18.5 2.5q-17 0 -26.5 -14t-9.5 -33q-1 -16 14 -43.5t36 -48.5q19 7 38 12.5t38 5.5q7 -1 11 -1q14 0 14 -24q0 -16 -10 -16q-44 0 -84.5 -16
t-40.5 -58q0 -45 31.5 -78.5t76.5 -33.5q47 0 98 29t61 34q8 4 17 -5.5t9 -19.5q0 -6 -29 -24.5t-68 -36t-88 -17.5q-61 0 -104.5 44.5t-43.5 107.5q0 26 10.5 45.5t28.5 33.5z" />
    <glyph glyph-name="grave" unicode="`" horiz-adv-x="574" 
d="M81 374q-24 29 -40.5 56.5t-16.5 58.5q0 50 31 80.5t93 70.5q6 4 14.5 -6t8.5 -20q0 -5 -18.5 -19t-52.5 -38q-36 -30 -36 -68q0 -27 14 -49t38 -47q22 8 51 12.5t57 8.5q6 1 10 -6t4 -16q0 -17 -28.5 -21t-74.5 -11q-52 -14 -52 -60t30.5 -80.5t75.5 -34.5q36 0 78 13.5
t101 53.5v291q0 12 20 12t20 -12v-463q0 -20 17 -34t38 -14q17 0 29.5 7.5t33.5 38.5q7 9 23.5 -6.5t8.5 -23.5q-28 -30 -43 -43t-54 -13q-38 0 -65.5 25.5t-27.5 62.5v121q-42 -27 -85.5 -41.5t-93.5 -14.5q-62 0 -104 46t-42 109q0 25 9.5 43t28.5 31z" />
    <glyph glyph-name="a" unicode="a" horiz-adv-x="255" 
d="M231 61q-21 -36 -41.5 -55.5t-45.5 -19.5q-51 0 -78.5 27.5t-27.5 70.5v460q0 12 21 12q19 0 19 -12v-460q0 -25 17.5 -41.5t48.5 -16.5q14 0 24 12t19 27.5t19 15.5t19.5 -6.5t5.5 -13.5z" />
    <glyph glyph-name="b" unicode="b" horiz-adv-x="666" 
d="M296 316l2 26q0 14 -2.5 22t-12.5 8q-7 0 -13 -5t-6 -13q0 -14 8.5 -23t23.5 -15zM456 328v216q0 12 20 12t20 -12v-460q0 -23 15.5 -39.5t37.5 -16.5q37 0 51 22.5t24 22.5q11 0 20 -5.5t5 -11.5q-20 -36 -44 -52t-59 -16q-38 0 -64 28t-26 68v200q-32 -16 -74 -16h-20
q-9 0 -17 0.5t-17 3.5q-17 -56 -55 -92t-91 -36q-72 0 -116 62t-44 144q0 70 46.5 126t105.5 89q8 4 18 -5t10 -19q0 -5 -38.5 -30t-70 -62t-31.5 -99q0 -66 32 -116t88 -50q40 0 67.5 27t39.5 71q-30 10 -47.5 28t-17.5 44q0 24 18 41t43 17q24 0 38.5 -21t14.5 -49l-2 -33
q6 -3 18 -3q5 0 14.5 1t13.5 1q42 0 74 20z" />
    <glyph glyph-name="c" unicode="c" horiz-adv-x="633" 
d="M107 283q-5 9 -11 20t-15 11q-13 0 -15 -14q-1 -8 5.5 -13t24.5 -5zM419 260v284q0 12 20 12t20 -12v-460q0 -25 17.5 -41.5t48.5 -16.5q14 0 24 12t19 27.5t19 15.5t19.5 -6.5t5.5 -13.5q-21 -36 -41.5 -55.5t-45.5 -19.5q-51 0 -78.5 27.5t-27.5 70.5v117
q-40 -39 -70.5 -52t-60.5 -13q-48 0 -93.5 34t-63.5 78q-20 -6 -35 -6q-28 0 -50.5 18.5t-19.5 44.5q4 22 18 35.5t36 13.5q12 0 25.5 -15t35.5 -47q46 20 80.5 66.5t34.5 81.5q0 43 -32.5 71.5t-78.5 28.5q-23 0 -55 -16t-36 -17q-8 -2 -16 7t-8 18q0 6 20 18.5t46.5 21
t50.5 8.5q60 0 104.5 -40.5t44.5 -99.5q0 -43 -40.5 -104.5t-90.5 -75.5q15 -39 49.5 -61.5t73.5 -22.5q34 0 65.5 23.5t65.5 60.5z" />
    <glyph glyph-name="d" unicode="d" horiz-adv-x="464" 
d="M378 113q4 9 4 21q0 8 -10 10q-12 2 -12 -14q0 -3 5 -8t13 -9zM124 276q-39 34 -69.5 77.5t-30.5 82.5q0 44 30.5 59t78.5 29.5t86 24.5t53 17q7 3 12.5 -5.5t5.5 -19.5q0 -10 -13 -15.5t-42.5 -13.5t-54.5 -15q-53 -10 -84.5 -19.5t-31.5 -41.5t29.5 -71.5t62.5 -66.5
q67 37 139 51q8 2 12.5 -8t4.5 -18q0 -11 -43.5 -19t-101 -39.5t-57.5 -94.5q0 -53 37.5 -88.5t92.5 -35.5q70 0 113 34q-33 14 -33 50q0 23 15.5 38.5t37.5 15.5t35.5 -14.5t13.5 -35.5q0 -54 -56.5 -91t-125.5 -37q-71 0 -120.5 46.5t-49.5 117.5q0 32 14.5 59t39.5 47z
" />
    <glyph glyph-name="e" unicode="e" horiz-adv-x="10" 
d="M-145 575q3 -6 -3.5 -10.5t-16.5 -4.5q-13 0 -45 61.5t-62 105.5t-82 44q-25 0 -34.5 -4.5t-20.5 -9.5q-8 -3 -16 6.5t-8 19.5q0 7 10 11.5t24 11.5q15 5 45 5q66 0 128 -101.5t81 -134.5z" />
    <glyph glyph-name="f" unicode="f" horiz-adv-x="428" 
d="M129 121q-14 16 -25 25t-18 9l-5 -9q0 -25 48 -25zM240 344q-11 -6 -68 -19t-113 -26q-8 -2 -15 8t-7 19q0 7 6 9q38 7 78.5 15.5t72.5 19.5q-46 25 -76.5 51t-30.5 62q0 40 56 69.5t107 29.5q13 0 23.5 -3t10.5 -19q0 -19 -28.5 -23t-73.5 -10q-55 -13 -55 -44
q0 -38 47 -67q34 -18 68 -35q20 0 87 16t97 21q8 2 14.5 -7.5t6.5 -19.5q0 -9 -7 -9q-20 0 -66 -10t-88 -20q39 -35 67.5 -74.5t28.5 -68.5q0 -62 -48.5 -93.5t-120.5 -31.5q34 -38 54 -61t37 -48q4 -7 -6.5 -16.5t-19.5 -9.5q-5 0 -26 28.5t-42.5 57t-41.5 51.5
q-51 6 -89 20.5t-38 39.5q0 26 14.5 38.5t30.5 12.5q24 0 49 -21.5t46 -53.5q54 0 107.5 19.5t53.5 67.5q0 32 -29 68t-73 67z" />
    <glyph glyph-name="g" unicode="g" horiz-adv-x="645" 
d="M325 326q0 -77 -36 -132t-103 -55q-63 0 -101 43.5t-73 119.5q-3 7 6 14t20 7q7 0 29.5 -43.5t44.5 -72t74 -28.5q50 0 74.5 43t24.5 104q0 73 -32 124.5t-95 51.5q-26 0 -39 -4t-37 -18q-8 -5 -19.5 3.5t-11.5 17.5q0 4 15 16.5t33.5 18.5t58.5 6q78 0 122.5 -64
t44.5 -152zM627 61q-21 -36 -41.5 -55.5t-45.5 -19.5q-51 0 -78.5 27.5t-27.5 70.5v458q0 12 21 12q19 0 19 -12v-458q0 -25 17.5 -41.5t48.5 -16.5q14 0 24 12t19 27.5t19 15.5t19.5 -6.5t5.5 -13.5z" />
    <glyph glyph-name="h" unicode="h" horiz-adv-x="538" 
d="M432 244q0 -42 -34 -74t-80 -32q-52 0 -89 24t-115 132q-5 7 5 17t20 10q4 0 23.5 -24.5t55.5 -70.5q46 -48 100 -48q30 0 52 19t22 47q0 40 -42 79q-69 55 -120 95q17 19 55 57.5t77 70.5q9 7 21.5 -6t6.5 -22q-15 -24 -44 -49t-56 -47q66 -53 104 -88.5t38 -89.5z
M520 79q0 -31 -63 -64t-141 -33q-28 0 -81.5 10.5t-104 49.5t-77 97t-26.5 108q0 68 21.5 113.5t27.5 45.5q13 0 20.5 -10.5t4.5 -16.5q-15 -41 -23 -75.5t-8 -65.5q0 -39 20.5 -83.5t62.5 -76.5t80 -42.5t58 -14t38 -3.5q26 0 50 7.5t50 17.5q-4 8 -4 20q0 15 2.5 23.5
t10.5 20.5t33 12q19 0 34 -11.5t15 -28.5z" />
    <glyph glyph-name="i" unicode="i" horiz-adv-x="243" 
d="M78 84q0 -25 17.5 -41.5t48.5 -16.5q14 0 24 12t19 27.5t19 15.5t19.5 -6.5t5.5 -13.5q-21 -36 -41.5 -55.5t-45.5 -19.5q-51 0 -78.5 27.5t-27.5 70.5v586q0 77 41.5 112.5t94.5 35.5q83 0 162.5 -15.5t151.5 -62t102 -128.5q1 -4 -3.5 -7t-13.5 -3q-10 0 -17.5 5.5
t-30 57t-125.5 83.5t-226 32q-36 0 -66 -25.5t-30 -77.5v-593z" />
    <glyph glyph-name="j" unicode="j" horiz-adv-x="615" 
d="M381 329q-53 -63 -85.5 -117t-32.5 -87q0 -49 12.5 -74t71.5 -25q44 0 74.5 33.5t30.5 79.5q0 36 -18.5 85t-52.5 105zM205 516q-35 19 -64 19q-35 0 -58.5 -29.5t-23.5 -68.5q0 -43 19.5 -74t56.5 -31q39 0 57.5 31t18.5 87zM358 363q-24 35 -52 67t-57 56l2 -35
q0 -74 -30.5 -116.5t-85.5 -42.5q-53 0 -84.5 44t-31.5 103q0 54 35 95t87 41q54 0 118.5 -52t122.5 -132q43 50 88.5 93t57.5 53.5t50 40.5q9 7 22 -8t4 -22q-32 -25 -59 -50t-43 -41l-47 -47t-50 -53q39 -60 63 -118.5t24 -99.5q0 -63 -41 -108t-102 -45q-86 0 -106 36
t-20 105q0 37 37.5 100.5t97.5 135.5z" />
    <glyph glyph-name="k" unicode="k" horiz-adv-x="480" 
d="M284 288q47 -35 69 -66t22 -82q0 -62 -51 -105t-116 -43q-50 0 -78.5 8t-76.5 36.5t-48 34.5q0 10 8 20t16 7q49 -29 88 -47.5t91 -18.5q49 0 88 31t39 77q0 50 -18.5 77t-65.5 62q-32 -20 -67.5 -41t-69.5 -39q-7 -4 -15 5t-8 20q0 6 9 15.5t46 28t73 34.5
q-40 33 -67.5 64.5t-27.5 62.5q0 30 28 66t91 73q7 4 15 -6t8 -20q0 -5 -3 -8.5t-51 -41t-48 -63.5q0 -22 16.5 -46.5t62.5 -66.5l135 60q6 3 13 -5t7 -17q0 -5 -20 -18t-49.5 -27t-44.5 -21z" />
    <glyph glyph-name="l" unicode="l" horiz-adv-x="584" 
d="M269 85q-7 -1 -21 -1q-81 0 -156.5 66.5t-75.5 155.5q0 93 76.5 156.5t159.5 85.5q7 1 11 -5t4 -16q0 -14 -29 -29.5t-77 -40.5q-105 -63 -105 -151q0 -76 68.5 -128.5t140.5 -52.5q6 0 10 -7t4 -16q0 -16 -10 -17zM373 326q-14 -5 -32 -10.5t-34.5 -9t-55 -15
t-63.5 -11.5q-8 0 -15 10.5t-7 20.5q0 9 8 11q36 3 55 5t48 9t46 10.5t50 13.5v184q0 12 20 12t20 -12v-460q0 -25 17.5 -41.5t48.5 -16.5q14 0 24 12t19 27.5t19 15.5t19.5 -6.5t5.5 -13.5q-21 -36 -41.5 -55.5t-45.5 -19.5q-51 0 -78.5 27.5t-27.5 70.5v242z" />
    <glyph glyph-name="m" unicode="m" horiz-adv-x="578" 
d="M129 282h-21q-9 0 -9 -3q6 -8 13 -15q7 -11 14 -21q1 2 3 5v34zM364 318v226q0 12 20 12t20 -12v-460q0 -25 17.5 -41.5t48.5 -16.5q14 0 24 12t19 27.5t19 15.5t19.5 -6.5t5.5 -13.5q-21 -36 -41.5 -55.5t-45.5 -19.5q-51 0 -78.5 27.5t-27.5 70.5v198h-195v-34
q0 -53 -26 -53q-13 0 -29 12t-28.5 26.5t-22.5 29.5t-10 28q0 26 55 26h21l1 173q0 35 -5 43.5t-19 8.5q-23 0 -39.5 -13t-29.5 -27q-10 -5 -20 6.5t-10 18.5q0 6 4 7q18 16 41 32t54 16q35 0 49.5 -12.5t14.5 -79.5l-1 -173z" />
    <glyph glyph-name="n" unicode="n" horiz-adv-x="555" 
d="M342 340h-208l22 -24v-88q0 -22 -13 -22q-10 0 -27 14.5t-45.5 49t-37.5 48t-9 32.5q0 14 13 22t29 8h276v164q0 12 20 12t20 -12v-460q0 -25 17.5 -41.5t48.5 -16.5q14 0 24 12t19 27.5t19 15.5t19.5 -6.5t5.5 -13.5q-21 -36 -41.5 -55.5t-45.5 -19.5q-51 0 -78.5 27.5
t-27.5 70.5v256z" />
    <glyph glyph-name="o" unicode="o" horiz-adv-x="249" 
d="M78 544v-460q0 -25 17.5 -41.5t48.5 -16.5q14 0 24 12t19 27.5t19 15.5t19.5 -6.5t5.5 -13.5q-21 -36 -41.5 -55.5t-45.5 -19.5q-51 0 -78.5 27.5t-27.5 70.5l-1 459q-41 90 -80 146t-91 56q-25 0 -34.5 -4.5t-20.5 -9.5q-8 -3 -16 6.5t-8 19.5q0 7 10 11.5t24 11.5
q15 5 45 5q61 0 115.5 -70t96.5 -171z" />
    <glyph glyph-name="p" unicode="p" horiz-adv-x="552" 
d="M332 220q-21 -17 -46 -26.5t-52 -9.5q-13 0 -45.5 4t-70 34t-37.5 80v212q0 11 -12.5 17.5t-26.5 6.5q-9 0 -16.5 -4.5t-13.5 -7.5q-10 -5 -23 7.5t-5 20.5q12 11 26 17.5t32 6.5q31 0 55 -18t24 -46v-212q0 -35 30 -56t72 -21q27 0 58.5 13.5t50.5 31.5v274q0 12 20 12
t20 -12v-460q0 -25 17.5 -41.5t48.5 -16.5q14 0 24 12t19 27.5t19 15.5t19.5 -6.5t5.5 -13.5q-21 -36 -41.5 -55.5t-45.5 -19.5q-51 0 -78.5 27.5t-27.5 70.5v136z" />
    <glyph glyph-name="q" unicode="q" horiz-adv-x="582" 
d="M170 388q16 16 23.5 34.5t7.5 45.5q0 34 -21 59t-51 21q-25 -3 -40 -21t-15 -44q0 -34 24 -52.5t72 -42.5zM364 260v284q0 12 20 12t20 -12v-460q0 -25 17.5 -41.5t48.5 -16.5q14 0 24 12t19 27.5t19 15.5t19.5 -6.5t5.5 -13.5q-21 -36 -41.5 -55.5t-45.5 -19.5
q-51 0 -78.5 27.5t-27.5 70.5v127q-39 -31 -77 -51.5t-85 -20.5q-49 0 -108 48.5t-77 121.5q47 12 75 26l46 27q-47 27 -75.5 54t-28.5 69q0 40 24.5 68.5t64.5 34.5q8 1 12 1q44 0 75 -37t31 -84q0 -50 -22.5 -86t-77 -65.5t-75.5 -36.5q18 -43 59.5 -72t76.5 -29
q38 0 72.5 20t89.5 61z" />
    <glyph glyph-name="r" unicode="r" horiz-adv-x="459" 
d="M146 217q-5 11 -11 20.5t-20 13.5q-8 2 -17 -3t-9 -12q-1 -6 5 -9.5t20 -6.5t32 -3zM178 221q54 10 85.5 51t31.5 97q0 69 -44 110t-110 41q-26 0 -52.5 -9t-54.5 -19q-10 0 -17.5 8.5t-7.5 17.5q0 7 14 15.5t45.5 17.5t72.5 9q83 0 138.5 -51.5t55.5 -139.5
q0 -69 -39 -120t-104 -67l16 -46q19 -47 45.5 -81t55.5 -34q32 0 50.5 5t43.5 19q7 4 16 -4t9 -18q0 -4 -14 -15.5t-39 -18t-66 -6.5q-39 0 -76.5 40.5t-53 80t-22.5 73.5q-23 0 -50.5 5.5t-40.5 18.5t-13 35q0 23 16.5 35.5t42.5 12.5q22 0 38 -17t28 -46z" />
    <glyph glyph-name="s" unicode="s" horiz-adv-x="660" 
d="M104 234q-5 16 -19 16q-3 0 -8 -3t-4 -8q2 -10 15 -10q8 0 16 5zM438 315q-33 -28 -81 -28q-11 0 -21.5 1.5t-24.5 7.5t-33 17q-17 -44 -51.5 -77t-73.5 -40q27 -78 47.5 -120.5t64.5 -42.5q24 0 33 4q15 10 29 20q9 6 16 -6t7 -20q0 -7 -15.5 -17.5t-30 -14.5t-49.5 -4
q-39 0 -79 58t-55 134q-35 0 -59.5 15.5t-24.5 51.5q0 16 14.5 26t33.5 10t31 -13.5t21 -36.5q45 0 79 43t34 95q0 88 -27 125.5t-97 37.5q-16 0 -31 -10l-30 -20q-9 -5 -21 7t-7 21q9 17 35 29.5t54 12.5q90 0 127 -47t37 -156l-2 -26q15 -10 29 -17t29 -7q23 0 48 7.5
t44 23.5v185q0 12 20 12t20 -12v-460q0 -25 17.5 -41.5t48.5 -16.5q14 0 24 12t19 27.5t19 15.5t19.5 -6.5t5.5 -13.5q-21 -36 -41.5 -55.5t-45.5 -19.5q-51 0 -78.5 27.5t-27.5 70.5v231z" />
    <glyph glyph-name="t" unicode="t" 
d="M350 420v124q0 12 20 12t20 -12v-460q0 -25 17.5 -41.5t48.5 -16.5q14 0 24 12t19 27.5t19 15.5t19.5 -6.5t5.5 -13.5q-21 -36 -41.5 -55.5t-45.5 -19.5q-51 0 -78.5 27.5t-27.5 70.5v296h-134.5h-69.5q-32 0 -54 -24t-22 -58q0 -68 43 -143t112 -140q9 -8 -5.5 -23.5
t-22.5 -6.5q-24 27 -61 70.5t-71.5 110t-34.5 132.5q0 50 33 86t83 36h120h84z" />
    <glyph glyph-name="u" unicode="u" horiz-adv-x="10" 
d="M11 -114q0 -61 -56.5 -100t-125.5 -39q-67 0 -113.5 23t-78 57t-92.5 110q-6 8 6.5 15t19.5 7t41.5 -44t85 -86t131.5 -42q54 0 98 26.5t44 72.5q0 35 -30.5 56t-71.5 21q-25 0 -41 -10.5t-26 -27t-16 -16.5q-12 0 -20 10t-5 16q15 30 45 49t63 19q56 0 99 -33t43 -84z
" />
    <glyph glyph-name="v" unicode="v" horiz-adv-x="540" 
d="M320 218v326q0 12 20 12t20 -12v-460q0 -25 17.5 -41.5t48.5 -16.5q14 0 24 12t19 27.5t19 15.5t19.5 -6.5t5.5 -13.5q-21 -36 -41.5 -55.5t-45.5 -19.5q-51 0 -78.5 27.5t-27.5 70.5v88q-59 -33 -112 -33q-79 0 -135.5 48t-56.5 123q0 67 56 113.5t123 46.5
q52 0 62.5 -10.5t10.5 -18.5q0 -11 -7 -19.5t-15 -4.5q-11 5 -21 9t-30 4q-51 0 -95 -35.5t-44 -86.5q0 -57 45 -93t107 -36q15 0 63 19.5t49 19.5z" />
    <glyph glyph-name="w" unicode="w" horiz-adv-x="756" 
d="M320 293h-20q-12 0 -12 -3t9 -9t12 -11t7 -11q2 2 4 5v29zM539 333v211q0 12 20 12t20 -12v-460q0 -25 17.5 -41.5t48.5 -16.5q14 0 24 12t19 27.5t19 15.5t19.5 -6.5t5.5 -13.5q-21 -36 -41.5 -55.5t-45.5 -19.5q-51 0 -78.5 27.5t-27.5 70.5v209h-179v-29
q0 -28 -7.5 -39.5t-21.5 -11.5t-29 10.5t-28 26.5t-25 31t-12 27t14 18.5t49 6.5h20v133q0 34 -29.5 53t-68.5 19q-65 0 -115.5 -53.5t-50.5 -112.5q0 -90 45 -142.5t77 -84t32 -37.5q0 -12 -8.5 -21.5t-16.5 -3.5q-90 75 -129.5 149.5t-39.5 139.5q0 73 62 139.5t144 66.5
q54 0 96 -31.5t42 -80.5v-133h179z" />
    <glyph glyph-name="x" unicode="x" horiz-adv-x="630" 
d="M229 480q0 30 -17 48t-46 18q-31 0 -52.5 -18.5t-21.5 -47.5q0 -22 15.5 -42.5t46.5 -41.5q25 18 50 40.5t25 43.5zM256 133q28 10 21 22q-9 14 -14 14q-9 0 -13 -13q-2 -7 1 -13zM418 397v147q0 12 20 12t20 -12v-460q0 -25 17.5 -41.5t48.5 -16.5q14 0 24 12t19 27.5
t19 15.5t19.5 -6.5t5.5 -13.5q-21 -36 -41.5 -55.5t-45.5 -19.5q-51 0 -78.5 27.5t-27.5 70.5v267q-55 -44 -132 -44t-136 41q-41 -29 -66 -59.5t-25 -67.5q0 -47 33.5 -74.5t87.5 -27.5l39 3q-11 14 -11 27q0 5 5 21t18.5 27.5t32.5 11.5q16 0 27 -9t17 -19.5t6 -18.5
q0 -19 -13 -39t-35 -23l67 -114q4 -7 -5.5 -15.5t-19.5 -8.5q-6 0 -9 4l-71 123q-27 -10 -48 -10q-71 0 -116 39t-45 103q0 42 30 83t75 72q-35 27 -53.5 52t-18.5 52q0 45 33.5 75.5t80.5 30.5q45 0 73 -29t28 -75q0 -29 -21 -56t-61 -54q43 -25 99 -25q34 0 68 13.5
t66 36.5z" />
    <glyph glyph-name="y" unicode="y" horiz-adv-x="552" 
d="M341 236q-29 -19 -57 -32.5t-79 -13.5q-71 0 -127 59t-56 119q44 7 82 43t38 77q0 23 -17 38t-40 15q-13 0 -26 -8q-6 -4 -12 6t-6 21q0 10 9 12t22 2q42 0 76 -23.5t34 -62.5q0 -45 -38 -89.5t-80 -61.5q10 -37 51.5 -72t89.5 -35q33 0 68.5 15t67.5 36v263q0 12 20 12
t20 -12v-460q0 -25 17.5 -41.5t48.5 -16.5q14 0 24 12t19 27.5t19 15.5t19.5 -6.5t5.5 -13.5q-21 -36 -41.5 -55.5t-45.5 -19.5q-51 0 -78.5 27.5t-27.5 70.5v152z" />
    <glyph glyph-name="z" unicode="z" horiz-adv-x="597" 
d="M446 377q58 -7 88 -50.5t30 -104.5q0 -74 -39 -126.5t-88 -84.5q-10 -6 -19.5 5t-9.5 18q0 4 33 29.5t58 59.5t25 99q0 49 -26 82.5t-74 33.5q-17 0 -41.5 -9.5t-47.5 -25.5l3 -38q0 -100 -42.5 -176.5t-124.5 -76.5q-67 0 -103.5 56.5t-57.5 135.5q-3 13 19 13
q18 0 32.5 -46.5t36 -82.5t73.5 -36q65 0 96 64t31 147q0 79 -39 139t-107 60q-21 0 -41.5 -12t-43.5 -27q-8 -3 -16 6t-8 19q0 6 18 20t37 24t54 10q65 0 110 -44t64 -113q15 8 41 19t45 13v187q0 7 13 7q7 0 14 -3t7 -8v-183z" />
    <glyph glyph-name="braceleft" unicode="{" horiz-adv-x="460" 
d="M338 358q4 10 4 15q0 14 -2 21.5t-9 7.5q-15 0 -15 -12q0 -11 5.5 -18.5t16.5 -13.5zM496 365v-42q-17 -7 -34 -13t-36 -6q-13 0 -27.5 1t-27.5 4q-15 -69 -58.5 -111.5t-100.5 -42.5q-60 0 -95 30t-35 79v248q0 18 -10.5 24t-28.5 6q-20 0 -30 -18l-22 6q-16 17 -6 24
q23 16 32.5 22t23.5 6q38 0 59.5 -14t21.5 -56v-248q0 -32 24.5 -50.5t65.5 -18.5q44 0 76.5 35t44.5 92q-27 11 -42 28t-15 40q0 19 16.5 35.5t36.5 16.5q22 0 35.5 -21t13.5 -47l-1 -27q6 -3 14.5 -5t21.5 -2h11q17 0 35.5 8.5t36.5 16.5z" />
    <glyph glyph-name="bar" unicode="|" horiz-adv-x="390" 
d="M428 548q-9 4 -18.5 6t-17.5 2h-30q-40 0 -63 -35t-23 -127v-47q0 -111 -26.5 -148t-79.5 -37q-67 0 -108.5 56t-41.5 130q0 86 26 126.5t69 92.5q8 9 23 -4.5t7 -23.5q-45 -59 -65 -88.5t-20 -102.5q0 -57 30 -101.5t80 -44.5q41 0 55.5 26t14.5 72q0 16 -2 54.5
t-2 39.5q0 84 28.5 143t97.5 59q31 0 42.5 -2t24 -4t12.5 -22q0 -10 -3.5 -16.5t-9.5 -3.5z" />
    <glyph glyph-name="braceright" unicode="}" horiz-adv-x="441" 
d="M153 24q-5 15 -20.5 29.5t-26.5 14.5t-21.5 -4.5t-10.5 -13.5q0 -15 12.5 -21.5t32.5 -6.5zM281 287q-42 -23 -112 -23q-9 0 -9 14q0 11 4.5 19t12.5 7q5 -1 16 -1q35 0 66 17.5t48 40t17 55.5q0 50 -35 83t-90 33q-32 0 -64 -15.5t-43 -20.5q-7 -3 -16 6.5t-9 19.5
q0 7 17 17t48.5 21.5t66.5 11.5q71 0 118 -45t47 -111q0 -36 -13.5 -62.5t-40.5 -47.5q28 -28 49.5 -68.5t21.5 -95.5q0 -64 -50.5 -109.5t-118.5 -45.5q26 -53 61.5 -92t79.5 -39q17 0 40.5 9.5t25.5 9.5q7 2 12 -7t5 -18q0 -10 -12.5 -15t-31 -12t-37.5 -7
q-56 0 -105 53.5t-80 116.5q-59 0 -95.5 13t-36.5 49q0 25 18 42.5t50 17.5q18 0 45.5 -25.5t43.5 -56.5q55 9 100.5 38.5t45.5 77.5q0 44 -18 81t-42 64z" />
    <glyph glyph-name="asciitilde" unicode="~" horiz-adv-x="334" 
d="M81 374q-24 29 -40.5 56.5t-16.5 58.5q0 50 31 80.5t93 70.5q6 4 14.5 -6t8.5 -20q0 -5 -18.5 -19t-52.5 -38q-36 -30 -36 -68q0 -27 14 -49t38 -47q22 8 51 12.5t57 8.5q6 1 10 -6t4 -16q0 -17 -28.5 -21t-74.5 -11q-52 -14 -52 -60t30.5 -80.5t75.5 -34.5
q46 0 86.5 17.5t92.5 49.5q4 3 8.5 -1t4.5 -19q0 -14 -3.5 -21t-31 -21t-70 -29.5t-87.5 -15.5q-62 0 -104 46t-42 109q0 25 9.5 43t28.5 31z" />
    <glyph glyph-name="Adieresis" unicode="&#xc4;" horiz-adv-x="129" 
 />
    <glyph glyph-name="Aring" unicode="&#xc5;" horiz-adv-x="524" 
d="M479 231q0 -82 -48 -142.5t-122 -60.5q-76 0 -129 39.5t-92.5 103.5t-73.5 124q-4 8 6 17t20 9q5 0 21.5 -29.5t51 -89t81.5 -97t115 -37.5q57 0 93.5 48.5t36.5 114.5q0 44 -24 58t-73 14q-18 0 -33 -0.5t-27 -0.5q-72 0 -122 38.5t-50 109.5q0 48 29 82t74 34h206
q12 0 12 -20t-12 -20h-206q-28 0 -45.5 -22.5t-17.5 -53.5q0 -53 37 -80.5t91 -27.5q133 0 167 -25t34 -86z" />
    <glyph glyph-name="Ccedilla" unicode="&#xc7;" horiz-adv-x="380" 
d="M120 155q1 9 -6.5 23t-17.5 14q-4 0 -4 -18q0 -9 9 -15t19 -4zM133 113q-32 0 -56.5 17t-24.5 44q0 22 13 39t32 17q24 0 41.5 -26t17.5 -46q37 4 73.5 34t36.5 68q0 32 -26.5 43t-66.5 11q-72 0 -114.5 28t-42.5 83q0 53 38 89t92 36q50 0 120 -64t92 -64q15 0 28.5 3.5
t25.5 7.5q7 1 13 -8t6 -19t-13 -13t-29.5 -7t-30.5 -4q-21 0 -91 64t-121 64q-36 0 -63 -24t-27 -59q0 -37 31.5 -55t83.5 -18q58 0 96.5 -21t38.5 -73q0 -51 -43.5 -92.5t-93.5 -49.5q13 -31 37.5 -55t54.5 -24q21 0 29.5 2.5t25.5 12.5q5 3 10 -2t5 -21q0 -11 -9 -18.5
t-23 -10.5t-38 -3q-45 0 -77.5 33t-50.5 81z" />
    <glyph glyph-name="Eacute" unicode="&#xc9;" horiz-adv-x="118" 
 />
    <glyph glyph-name="Ntilde" unicode="&#xd1;" horiz-adv-x="162" 
 />
    <glyph glyph-name="Odieresis" unicode="&#xd6;" horiz-adv-x="160" 
 />
    <glyph glyph-name="Udieresis" unicode="&#xdc;" horiz-adv-x="134" 
 />
    <glyph glyph-name="aacute" unicode="&#xe1;" horiz-adv-x="134" 
 />
    <glyph glyph-name="agrave" unicode="&#xe0;" horiz-adv-x="38" 
 />
    <glyph glyph-name="adieresis" unicode="&#xe4;" horiz-adv-x="195" 
 />
    <glyph glyph-name="atilde" unicode="&#xe3;" horiz-adv-x="195" 
 />
    <glyph glyph-name="aring" unicode="&#xe5;" horiz-adv-x="736" 
d="M488 346q39 21 60.5 47t21.5 63q0 20 -17.5 33.5t-40.5 13.5q-28 0 -47.5 -23.5t-19.5 -53.5q0 -22 11 -41.5t32 -38.5zM614 237q-35 -7 -52 -39.5t-17 -75.5q0 -32 26 -56t62 -24q16 0 31.5 11t29.5 21q11 5 22.5 -8.5t3.5 -21.5q-20 -22 -39.5 -32t-45.5 -10
q-51 0 -90.5 36.5t-39.5 83.5q0 43 17 80t49 57q-25 11 -43 20.5t-40 24.5q-39 -19 -65.5 -26t-47.5 -9t-37 -2v-183q0 -25 17.5 -41.5t48.5 -16.5q14 0 24 12t19 27.5t19 15.5t19.5 -6.5t5.5 -13.5q-21 -36 -41.5 -55.5t-45.5 -19.5q-51 0 -78.5 27.5t-27.5 70.5v162
l-223 -120q-7 -4 -15 6t-8 20q0 7 8 12t82 44.5t138 73.5l-1 20q-26 56 -74 105t-79 49q-18 0 -47 -13t-41 -13q-11 0 -18 8t-7 18q0 7 12.5 14t42 16.5t58.5 9.5q31 0 84 -45t88 -102v195q0 12 21 12q19 0 19 -12v-237q18 0 31 1t29 5l56 18q-22 21 -35.5 45.5t-13.5 49.5
q0 47 31 82t76 35q40 0 69 -25t29 -62q0 -43 -23.5 -76t-65.5 -59q40 -26 68 -37t54 -11q8 0 14 -11.5t6 -21.5q0 -4 -1.5 -5.5t-4.5 0.5q-11 6 -21 6q-4 0 -22 -4z" />
    <glyph glyph-name="ccedilla" unicode="&#xe7;" horiz-adv-x="630" 
d="M120 155q1 9 -6.5 23t-17.5 14q-4 0 -4 -18q0 -9 9 -15t19 -4zM415 433v111q0 12 20 12t20 -12v-460q0 -25 17.5 -41.5t48.5 -16.5q14 0 24 12t19 27.5t19 15.5t19.5 -6.5t5.5 -13.5q-21 -36 -41.5 -55.5t-45.5 -19.5q-51 0 -78.5 27.5t-27.5 70.5v309q-20 -6 -31.5 -8.5
t-25.5 -2.5q-21 0 -91 64t-121 64q-36 0 -63 -24t-27 -59q0 -37 31.5 -55t83.5 -18q58 0 96.5 -21t38.5 -73q0 -51 -43.5 -92.5t-93.5 -49.5q13 -31 37.5 -55t54.5 -24q21 0 29.5 2.5t25.5 12.5q5 3 10 -2t5 -21q0 -11 -9 -18.5t-23 -10.5t-38 -3q-45 0 -77.5 33t-50.5 81
q-32 0 -56.5 17t-24.5 44q0 22 13 39t32 17q24 0 41.5 -26t17.5 -46q37 4 73.5 34t36.5 68q0 32 -26.5 43t-66.5 11q-72 0 -114.5 28t-42.5 83q0 53 38 89t92 36q50 0 120 -64t92 -64q13 0 32.5 5.5t24.5 5.5z" />
    <glyph glyph-name="egrave" unicode="&#xe8;" horiz-adv-x="204" 
 />
    <glyph glyph-name="ecircumflex" unicode="&#xea;" horiz-adv-x="204" 
 />
    <glyph glyph-name="edieresis" unicode="&#xeb;" horiz-adv-x="228" 
 />
    <glyph glyph-name="iacute" unicode="&#xed;" horiz-adv-x="249" 
d="M78 84q0 -25 17.5 -41.5t48.5 -16.5q14 0 24 12t19 27.5t19 15.5t19.5 -6.5t5.5 -13.5q-21 -36 -41.5 -55.5t-45.5 -19.5q-51 0 -78.5 27.5t-27.5 70.5v586q0 77 41.5 112.5t94.5 35.5q93 0 222 -73t224 -173q7 -8 -5.5 -16.5t-20.5 -8.5q-5 0 -49 45t-165.5 115.5
t-205.5 70.5q-36 0 -66 -24.5t-30 -76.5v-593z" />
    <glyph glyph-name="igrave" unicode="&#xec;" horiz-adv-x="444" 
 />
    <glyph glyph-name="icircumflex" unicode="&#xee;" horiz-adv-x="444" 
 />
    <glyph glyph-name="idieresis" unicode="&#xef;" horiz-adv-x="249" 
d="M78 84q0 -25 17.5 -41.5t48.5 -16.5q14 0 24 12t19 27.5t19 15.5t19.5 -6.5t5.5 -13.5q-21 -36 -41.5 -55.5t-45.5 -19.5q-51 0 -78.5 27.5t-27.5 70.5v586q0 77 41.5 112.5t94.5 35.5q97 0 211.5 -56t204.5 -150q7 -8 -5.5 -16.5t-20.5 -8.5q-5 0 -46.5 42.5
t-148.5 95.5t-195 53q-36 0 -66 -24.5t-30 -76.5v-593z" />
    <glyph glyph-name="ntilde" unicode="&#xf1;" horiz-adv-x="190" 
 />
    <glyph glyph-name="oacute" unicode="&#xf3;" horiz-adv-x="105" 
 />
    <glyph glyph-name="ograve" unicode="&#xf2;" horiz-adv-x="105" 
 />
    <glyph glyph-name="ocircumflex" unicode="&#xf4;" horiz-adv-x="120" 
 />
    <glyph glyph-name="odieresis" unicode="&#xf6;" horiz-adv-x="120" 
 />
    <glyph glyph-name="otilde" unicode="&#xf5;" horiz-adv-x="120" 
 />
    <glyph glyph-name="uacute" unicode="&#xfa;" horiz-adv-x="120" 
 />
    <glyph glyph-name="ugrave" unicode="&#xf9;" horiz-adv-x="120" 
 />
    <glyph glyph-name="ucircumflex" unicode="&#xfb;" horiz-adv-x="120" 
 />
    <glyph glyph-name="dagger" unicode="&#x2020;" horiz-adv-x="615" 
d="M408 420v124q0 12 20 12t20 -12v-460q0 -25 17.5 -41.5t48.5 -16.5q14 0 24 12t19 27.5t19 15.5t19.5 -6.5t5.5 -13.5q-21 -36 -41.5 -55.5t-45.5 -19.5q-51 0 -78.5 27.5t-27.5 70.5v297l-212 -1q-26 -8 -51 -24t-25 -58q0 -68 43 -143t112 -140q9 -8 -5.5 -23.5
t-22.5 -6.5q-24 27 -61 70.5t-71.5 110t-34.5 132.5q0 43 23 75q-5 0 -20 1t-27 1q-17 -1 -25 -1q-16 0 -16 24q0 22 13 19q20 -4 36 -5.5t40 -1.5q17 0 27.5 0.5t18.5 1.5q19 8 46 8h124h88z" />
    <glyph glyph-name="degree" unicode="&#xb0;" horiz-adv-x="826" 
d="M282 315q-23 -16 -45.5 -26t-56.5 -22q-7 -2 -12.5 6.5t-5.5 19.5q0 9 38.5 25t81 43t42.5 79q0 42 -33.5 69t-74.5 27q-23 0 -68.5 -22t-46.5 -22q-9 -1 -18 8t-9 18q0 5 19.5 15t53.5 28q33 15 69 15q55 0 101.5 -39t46.5 -97q0 -28 -13 -53t-36 -47l49 -11
q27 0 46.5 12.5t63.5 60t74.5 74t85.5 26.5q67 0 110.5 -54t43.5 -126q0 -82 -53 -143t-131 -61q-60 0 -102.5 34t-71.5 96q-4 8 4 10.5t15 2.5q16 0 31 -32t44.5 -51.5t79.5 -19.5q62 0 103 49t41 115q0 56 -31.5 98t-82.5 42q-45 0 -68.5 -23t-54 -56t-57.5 -62
q-37 -33 -77 -33q-15 0 -23 2q18 -28 29 -57t11 -63q0 -67 -45.5 -115.5t-110.5 -48.5q-93 0 -152.5 87.5t-81.5 174.5q-1 6 6.5 11t17.5 5q13 0 28 -38t43 -106q45 -94 139 -94q48 0 82 37t34 87q0 35 -19 73t-53 72zM540 747q0 -19 -14.5 -33.5t-34.5 -14.5t-34.5 14.5
t-14.5 33.5q0 20 14.5 34.5t34.5 14.5t34.5 -14.5t14.5 -34.5zM723 716q-7 -50 -82 -101t-159 -51q-79 0 -143 51.5t-70 97.5q-1 7 13 15t17 1q23 -61 67.5 -96t115.5 -35q67 0 119 39.5t84 86.5q4 4 12 4q7 0 17 -3t9 -9z" />
    <glyph glyph-name="cent" unicode="&#xa2;" horiz-adv-x="486" 
d="M192 251q-45 16 -75 32t-58.5 34.5t-31.5 20.5t-3 8q0 14 10 21.5t16 3.5q25 -18 38.5 -26.5t47.5 -26.5t80 -33.5t73 -15.5q50 0 80.5 9.5t30.5 41.5q0 50 -90 84q-99 29 -197 59q0 24 35.5 39t81 30t93.5 27q6 2 11.5 -6.5t5.5 -18.5t-10.5 -14t-42 -13t-59.5 -18
l-75 -26q32 -11 65 -22q97 -22 159.5 -48t62.5 -73q0 -48 -44.5 -69.5t-106.5 -21.5l-26 3l-53 -17q-31 -8 -50.5 -13t-19.5 -14q0 -8 87.5 -27.5t146.5 -44.5t59 -72q0 -48 -39.5 -70t-99.5 -22q-67 0 -109 15q-47 23 -78.5 37t-54.5 29.5t-30.5 20.5t-7.5 11
q0 14 10.5 21.5t15.5 3.5q20 -15 40.5 -27t49 -26t65.5 -31q39 -14 99 -14q58 0 78.5 13t20.5 39q0 51 -92 85q-101 29 -201 59q0 15 28.5 33t63.5 30z" />
    <glyph glyph-name="sterling" unicode="&#xa3;" horiz-adv-x="450" 
d="M402 86q0 -64 -61 -98t-139 -34q-68 0 -121 31.5t-53 88.5q0 66 60 84t96 28q6 3 14 -6t8 -16q0 -5 -37.5 -14t-73 -27t-35.5 -67q0 -32 31.5 -52t76.5 -20q72 0 135 23.5t63 72.5q0 51 -17.5 64.5t-52.5 13.5q-45 0 -62.5 16t-17.5 38q0 11 1.5 17.5t4.5 14.5
q-4 -2 -22 -2q-61 0 -116.5 29t-55.5 107q0 59 37 76t119 36q7 1 15 -7t8 -15q0 -4 -21.5 -10t-58.5 -16q-75 -25 -75 -82q0 -33 35 -56.5t81 -23.5q100 0 149 23.5t49 82.5q0 36 -17.5 56t-52.5 20q-46 0 -65 14.5t-19 37.5q0 15 7 33q8 16 17 32l33 -29l-22 -26l-13 -26
q56 -2 112 -18.5t56 -89.5q0 -63 -53 -107t-97 -35l-10 -26q-2 -6 2.5 -12t3.5 -10q52 -4 103 -22.5t51 -91.5z" />
    <glyph glyph-name="section" unicode="&#xa7;" horiz-adv-x="420" 
d="M376 389q0 -64 -32 -113.5t-87 -49.5q-47 0 -76.5 28.5t-52.5 77.5q-3 7 7 15t19 8q7 0 19 -23t27 -44.5t55 -21.5t60.5 37.5t20.5 87.5q0 53 -29.5 98t-68.5 45q-15 0 -32 -9.5t-30 -16.5q-9 -3 -18 5t-9 19q0 5 17 23.5t72 18.5q53 0 95.5 -57.5t42.5 -127.5zM355 40
q0 -36 -35 -56.5t-65 -16.5q-42 6 -74.5 18.5t-49 25.5t-16.5 19q0 9 10.5 18.5t17.5 4.5q60 -38 118 -46q18 -3 36 5t18 28q0 57 -106 102t-173 73v328q0 12 20 12t20 -12v-302q170 -75 224.5 -116t54.5 -85z" />
    <glyph glyph-name="bullet" unicode="&#x2022;" horiz-adv-x="183" 
d="M161 616q-9 -19 -31 -23q-16 -3 -29 10t-24 28q3 -8 9.5 -28t6.5 -35q0 -20 -13 -20q-18 0 -28 11.5t-10 22.5q0 13 4.5 25t10.5 22q-15 -18 -32.5 -36.5t-30.5 -18.5q-8 0 -12 9.5t-4 17.5t6 21t24.5 16t37.5 5q-45 6 -65.5 13.5t-12.5 22.5q8 17 28 21q19 4 34 -13.5
t22 -27.5q-8 17 -15.5 37t-7.5 35q0 18 13 18q24 0 34 -11.5t10 -25.5q0 -15 -4.5 -27t-10.5 -22q14 20 31 40.5t30 20.5q7 0 11 -8t4 -18t-5 -22t-23 -18t-36 -9q30 -2 58.5 -8t19.5 -25z" />
    <glyph glyph-name="paragraph" unicode="&#xb6;" horiz-adv-x="800" 
d="M713 316q0 -125 -91.5 -211.5t-222.5 -86.5q-130 0 -221.5 86.5t-91.5 211.5q0 126 91 215t222 89q130 0 222 -89t92 -215zM675 316q0 112 -81 195t-195 83q-113 0 -194.5 -82.5t-81.5 -195.5q0 -111 81 -192t195 -81t195 81t81 192zM570 161h-51q-16 0 -33 22
q-43 68 -83 123h-57v-93q0 -34 4.5 -38.5t41.5 -9.5v-4h-139v4q36 4 41 9.5t5 38.5v215v15q0 23 -6 27t-40 8l158 2q45 0 75.5 -18.5t30.5 -56.5q0 -33 -21 -56t-59 -35l59 -78q20 -25 39.5 -45.5t34.5 -29.5zM470 401q0 38 -21.5 55t-56.5 17h-46v-160h49q75 0 75 88z" />
    <glyph glyph-name="germandbls" unicode="&#xdf;" horiz-adv-x="585" 
d="M150 525l212 -241v260q0 12 20 12t20 -12v-460q0 -25 17.5 -41.5t48.5 -16.5q14 0 24 12t19 27.5t19 15.5t19.5 -6.5t5.5 -13.5q-21 -36 -41.5 -55.5t-45.5 -19.5q-51 0 -78.5 27.5t-27.5 70.5v136q-21 -17 -46 -26.5t-52 -9.5q-13 0 -45.5 4t-70 34t-37.5 80v212
q0 11 -12.5 17.5t-26.5 6.5q-9 0 -16.5 -4.5t-13.5 -7.5q-10 -5 -23 7.5t-5 20.5q12 11 26 17.5t32 6.5q27 0 50 -14.5t28 -38.5zM338 252l-187 212v-162q0 -34 28 -53t69 -24q20 -3 43.5 5t46.5 22z" />
    <glyph glyph-name="registered" unicode="&#xae;" horiz-adv-x="249" 
d="M38 142q-22 -10 -57.5 -31.5t-68.5 -45.5t-37 -29t-11 -8q-8 -4 -20 5.5t-12 18.5q0 2 4 6q16 10 33 20t45 28.5t62.5 35.5t61.5 30v372q0 12 20 12t20 -12v-460q0 -25 17.5 -41.5t48.5 -16.5q14 0 24 12t19 27.5t19 15.5t19.5 -6.5t5.5 -13.5q-21 -36 -41.5 -55.5
t-45.5 -19.5q-51 0 -78.5 27.5t-27.5 70.5v58z" />
    <glyph glyph-name="copyright" unicode="&#xa9;" horiz-adv-x="66" 
 />
    <glyph glyph-name="trademark" unicode="&#x2122;" horiz-adv-x="476" 
d="M275 246q-38 -6 -76 -6q-74 0 -122.5 25t-48.5 77q0 42 31.5 72.5t122.5 54.5q56 10 112 21q30 11 30 36q0 17 -14 23t-40 6q-13 0 -23.5 -0.5t-18.5 -0.5q-32 0 -58.5 -9t-40.5 -14q-7 -3 -14 7t-7 20t7 11q41 13 63.5 19t49.5 6q57 0 96.5 -14.5t39.5 -53.5
q0 -56 -64 -71t-108 -24q-67 -18 -95.5 -33t-28.5 -56q0 -35 30 -50t80 -15q44 0 84 7.5t75 22.5q37 18 75 37q8 3 16.5 -6.5t8.5 -19.5q0 -7 -20 -18t-39 -21t-62 -23q4 -8 9 -20.5t5 -21.5q0 -35 -43.5 -56t-102.5 -32t-87.5 -23.5t-28.5 -42.5q0 -40 40 -55t96 -15
q63 0 118.5 24t90.5 40q8 3 15.5 -6.5t7.5 -19.5q0 -7 -35 -27.5t-83 -35.5t-114 -15q-68 0 -122 27.5t-54 82.5q0 43 40 68t89.5 34t90.5 16q42 11 42 36q0 8 -6.5 18.5t-8.5 13.5z" />
    <glyph glyph-name="acute" unicode="&#xb4;" horiz-adv-x="35" 
d="M159 788q-42 -76 -74.5 -113t-89.5 -37t-94 42.5t-71 109.5q-3 6 6 12t19 6t24 -23t38 -63q33 -44 78 -44t71.5 32t42 64t25.5 32t19.5 -6t5.5 -12z" />
    <glyph glyph-name="dieresis" unicode="&#xa8;" horiz-adv-x="10" 
d="M26 -174q-52 -74 -146 -74q-76 0 -117 35.5t-41 96.5q0 44 30 65t98 54q7 4 13.5 -5.5t6.5 -20.5q0 -9 -19.5 -17.5t-53.5 -23.5q-35 -20 -35 -52q0 -44 31 -68t87 -24q32 0 61.5 21t56.5 41q10 6 22.5 -6.5t5.5 -21.5z" />
    <glyph glyph-name="notequal" unicode="&#x2260;" horiz-adv-x="668" 
d="M236 349q55 49 72.5 69.5t17.5 59.5q0 29 -23 47.5t-55 18.5q-35 0 -58.5 -24.5t-23.5 -59.5q0 -32 19 -59.5t51 -51.5zM460 243v301q0 12 20 12t20 -12v-460q0 -25 17.5 -41.5t48.5 -16.5q14 0 24 12t19 27.5t19 15.5t19.5 -6.5t5.5 -13.5q-21 -36 -41.5 -55.5
t-45.5 -19.5q-51 0 -78.5 27.5t-27.5 70.5v108q-41 -24 -63.5 -37.5t-47.5 -29.5t-63.5 -45.5t-66.5 -43.5q-7 -4 -16 6t-9 19q0 4 10.5 13.5t43.5 32.5t73 48l98 60q-22 7 -43 14.5t-43.5 18t-46 23.5t-46.5 29q-17 -13 -42.5 -28t-43.5 -25q-40 -26 -63.5 -41t-52.5 -27
q-7 -3 -15.5 7t-8.5 19q0 5 4 8l116 68q27 16 42.5 25t29.5 19q-37 29 -58.5 63t-21.5 72q0 51 35.5 87.5t86.5 36.5q47 0 82.5 -30.5t35.5 -75.5q0 -37 -17 -67.5t-79 -84.5q19 -12 28.5 -17t43.5 -21.5t62 -26t56 -18.5z" />
    <glyph glyph-name="AE" unicode="&#xc6;" horiz-adv-x="250" 
d="M177 612q0 -52 -15 -70.5t-55 -45.5q-6 -4 -14 5t-8 18q0 6 10.5 9.5t14.5 5t11 10.5t10 19t6 19q-15 4 -29.5 11t-14.5 29t11.5 37t34.5 15q20 0 29 -19t9 -43z" />
    <glyph glyph-name="Oslash" unicode="&#xd8;" horiz-adv-x="249" 
d="M40 787q0 -17 -11.5 -30.5t-28.5 -13.5q-16 0 -28 13t-12 31t11.5 31.5t28.5 13.5q16 0 28 -14t12 -31zM159 788q-42 -76 -74.5 -113t-89.5 -37t-94 42.5t-71 109.5q-3 6 6 12t19 6t24 -23t38 -63q33 -44 78 -44t71.5 32t42 64t25.5 32t19.5 -6t5.5 -12zM231 61
q-21 -36 -41.5 -55.5t-45.5 -19.5q-51 0 -78.5 27.5t-27.5 70.5v460q0 12 20 12t20 -12v-460q0 -25 17.5 -41.5t48.5 -16.5q14 0 24 12t19 27.5t19 15.5t19.5 -6.5t5.5 -13.5z" />
    <glyph glyph-name="infinity" unicode="&#x221e;" horiz-adv-x="440" 
d="M197 472q0 -36 -26.5 -62.5t-62.5 -26.5t-62 26t-26 63q0 36 26 62t62 26q35 0 62 -26t27 -62zM448 590l-408 -620q-6 -8 -22 -8q-7 0 -12.5 1.5t-1.5 8.5l410 628q4 5 14 5t17 -4.5t3 -10.5zM420 89q0 -36 -26.5 -62.5t-61.5 -26.5q-36 0 -62.5 26.5t-26.5 62.5t26 62
t63 26q36 0 62 -26t26 -62zM179 472q0 29 -21 50t-50 21t-50 -21t-21 -50t21 -50t50 -21t50 21t21 50zM402 89q0 29 -20 50t-50 21q-29 0 -50 -21t-21 -50t21 -50t50 -21q28 0 49 21t21 50z" />
    <glyph glyph-name="plusminus" unicode="&#xb1;" horiz-adv-x="668" 
d="M236 349q55 49 72.5 69.5t17.5 59.5q0 29 -23 47.5t-55 18.5q-35 0 -58.5 -24.5t-23.5 -59.5q0 -32 19 -59.5t51 -51.5zM235 119l32 -7l51 -72q7 -11 7 -17q0 -13 -25 -13q-26 0 -77 15t-63.5 21t-21 18.5t-8.5 29.5q0 11 4.5 19t16.5 12l268 90q-22 7 -43 14.5t-43.5 18
t-46 23.5t-46.5 29q-17 -13 -42.5 -28t-43.5 -25q-40 -26 -63.5 -41t-52.5 -27q-7 -3 -15.5 7t-8.5 19q0 5 4 8l116 68q27 16 42.5 25t29.5 19q-37 29 -58.5 63t-21.5 72q0 51 35.5 87.5t86.5 36.5q47 0 82.5 -30.5t35.5 -75.5q0 -37 -17 -67.5t-79 -84.5q19 -12 28.5 -17
t43.5 -21.5t62 -26t56 -18.5v301q0 12 21 12q19 0 19 -12v-460q0 -25 17.5 -41.5t48.5 -16.5q14 0 24 12t19 27.5t19 15.5t19.5 -6.5t5.5 -13.5q-21 -36 -41.5 -55.5t-45.5 -19.5q-51 0 -78.5 27.5t-27.5 70.5v108q-19 -11 -89 -32t-136 -41z" />
    <glyph glyph-name="lessequal" unicode="&#x2264;" horiz-adv-x="588" 
d="M141 229q-5 11 -11 20.5t-20 13.5q-8 2 -17 -3t-9 -12q-1 -6 5 -9.5t20 -6.5t32 -3zM330 386q24 10 51.5 17.5t49.5 7.5q67 0 93 -55t26 -121q0 -52 -34 -86.5t-84 -65.5q-7 -4 -16.5 6.5t-9.5 20.5q0 4 23 20t48.5 44t25.5 72q0 45 -19.5 84.5t-65.5 39.5
q-21 0 -42 -7.5t-48 -21.5q-7 -58 -44 -95t-97 -52l16 -46q19 -47 45.5 -81t55.5 -34h24q21 0 32 8q7 4 16 -4t9 -18q0 -4 -7.5 -10.5t-22.5 -10t-51 -3.5q-39 0 -76.5 40.5t-53 80t-22.5 73.5q-23 0 -50.5 5.5t-40.5 18.5t-13 35q0 23 16.5 35.5t42.5 12.5q22 0 38 -17
t28 -46q54 10 85.5 51t31.5 97q0 69 -44 110t-110 41q-30 0 -47 -9t-26 -9q-10 0 -17.5 8.5t-7.5 17.5q0 7 13.5 15.5t28.5 12.5t56 4q82 0 138 -50t56 -136z" />
    <glyph glyph-name="greaterequal" unicode="&#x2265;" horiz-adv-x="344" 
d="M367 326q-39 34 -103.5 67.5t-110.5 33.5q-36 0 -53 -8.5t-61 -37.5q-7 -5 -16.5 6t-9.5 20q0 5 16.5 14.5t45.5 26.5q38 19 78 19q56 0 121 -34t106 -71v-73q-2 0 -68 -43t-114 -75.5t-84 -61.5q-8 -6 -16.5 6.5t-8.5 19.5q0 5 13 17t64.5 46t125.5 81t75 47z" />
    <glyph glyph-name="yen" unicode="&#xa5;" horiz-adv-x="522" 
d="M302 146q-34 -22 -70.5 -32.5t-80.5 -10.5q-67 0 -95 58.5t-28 131.5q48 0 93 17.5t45 54.5q0 38 -17 64.5t-43 32.5t-42 6q-39 0 -77.5 -15.5t-63.5 -30.5q-6 -4 -12 6t-6 21q0 10 6 11q46 22 85 36t70 14q17 0 49 -8.5t61.5 -46t29.5 -90.5q0 -46 -36.5 -82.5
t-89.5 -36.5q-10 0 -16 1q15 -58 28.5 -82.5t58.5 -24.5q34 0 78 16.5t73 34.5v353q0 12 21 12q19 0 19 -12v-460q0 -25 17.5 -41.5t48.5 -16.5q14 0 24 12t19 27.5t19 15.5t19.5 -6.5t5.5 -13.5q-21 -36 -41.5 -55.5t-45.5 -19.5q-51 0 -78.5 27.5t-27.5 70.5v62z" />
    <glyph glyph-name="mu" unicode="&#xb5;" horiz-adv-x="708" 
d="M101 375q-6 11 -21.5 36.5t-15.5 42.5q0 62 80 88t168 26q12 0 12 -19t-12 -21q-82 -6 -145 -16t-63 -58q0 -15 15.5 -37t16.5 -24q38 15 82 15q35 0 61 -10t59 -36v-130h153v312q0 12 20 12t20 -12v-460q0 -25 17.5 -41.5t48.5 -16.5q14 0 24 12t19 27.5t19 15.5
t19.5 -6.5t5.5 -13.5q-21 -36 -41.5 -55.5t-45.5 -19.5q-51 0 -78.5 27.5t-27.5 70.5v108h-153v-40q0 -18 -23 -18q-16 0 -33.5 8.5t-28 23.5t-10.5 38q0 10 3.5 19t17.5 9h34v110q0 12 -12.5 19t-47.5 7h-20q-58 0 -103 -31.5t-45 -82.5q0 -84 62.5 -137t115.5 -77t53 -31
q0 -9 -9 -19t-17 -7q-92 46 -168.5 112.5t-76.5 158.5q0 39 18.5 69.5t52.5 51.5z" />
    <glyph glyph-name="partialdiff" unicode="&#x2202;" horiz-adv-x="449" 
d="M299 161q19 12 19 29v13q0 19 -10 19q-8 0 -14.5 -8.5t-6.5 -18.5q0 -7 12 -34zM222 112q-43 -24 -93 -50t-81 -35q-7 -2 -14.5 7.5t-7.5 19.5q0 7 18 12t54.5 19t72.5 29q-55 0 -103 57t-48 121t57 107t107.5 50.5t78.5 21.5t28 42q0 18 -3.5 26t-17.5 19q-7 6 3.5 16.5
t20.5 10.5q5 0 14.5 -10.5t16 -25t6.5 -34.5q0 -42 -40 -69.5t-89.5 -34.5t-95.5 -38t-46 -81q0 -66 43 -105t125 -39l35 2q-16 34 -16 45q0 24 18.5 45.5t42.5 21.5t37 -21.5t13 -50.5q0 -19 -11.5 -34.5t-31.5 -26.5q24 -45 42 -77t44 -77q3 -6 -4 -13.5t-22 -7.5
q-7 0 -10 5l-84 156q-15 -4 -38 -4h-12.5t-8.5 1z" />
    <glyph glyph-name="summation" unicode="&#x3a3;" horiz-adv-x="664" 
d="M597 213q-12 -14 -27.5 -18.5t-39.5 -4.5h-382h-25q-18 0 -30.5 3.5t-22.5 14.5t-13.5 26.5t-6.5 29.5v117q0 20 3 26.5t22.5 25t32 23t34.5 4.5h392q22 0 33.5 -3.5t25.5 -15.5t17.5 -20t3.5 -18v-15v-114q-1 -15 -3.5 -32t-13.5 -29zM567 243q9 10 9 31v108
q0 11 -1.5 15t-10 10.5t-18 8.5t-14.5 4h-389q-14 0 -18.5 -1.5t-16.5 -15.5l-19 -22l1 -115q0 -19 8.5 -28.5t29.5 -9.5q7 0 11.5 0.5t8.5 1.5h384q12 0 20 2.5t15 10.5z" />
    <glyph glyph-name="product" unicode="&#x220f;" horiz-adv-x="428" 
d="M236 349q55 49 72.5 69.5t17.5 59.5q0 29 -23 47.5t-55 18.5q-35 0 -58.5 -24.5t-23.5 -59.5q0 -32 19 -59.5t51 -51.5zM460 243v-51q-38 12 -69.5 26t-50 24.5t-48.5 26.5t-52 31q-17 -13 -42.5 -28t-43.5 -25q-40 -26 -63.5 -41t-52.5 -27q-7 -3 -15.5 7t-8.5 19
q0 5 4 8l116 68q27 16 42.5 25t29.5 19q-37 29 -58.5 63t-21.5 72q0 51 35.5 87.5t86.5 36.5q47 0 82.5 -30.5t35.5 -75.5q0 -37 -17 -67.5t-79 -84.5q19 -12 28.5 -17t43.5 -21.5t62 -26t56 -18.5z" />
    <glyph glyph-name="pi" unicode="&#x3c0;" horiz-adv-x="668" 
d="M236 349q55 49 72.5 69.5t17.5 59.5q0 29 -23 47.5t-55 18.5q-35 0 -58.5 -24.5t-23.5 -59.5q0 -32 19 -59.5t51 -51.5zM460 243v301q0 12 20 12t20 -12v-460q0 -25 17.5 -41.5t48.5 -16.5q14 0 24 12t19 27.5t19 15.5t19.5 -6.5t5.5 -13.5q-21 -36 -41.5 -55.5
t-45.5 -19.5q-51 0 -78.5 27.5t-27.5 70.5v108q-41 -24 -63.5 -37.5t-47.5 -29.5t-63.5 -45.5t-66.5 -43.5q-7 -4 -16 6t-9 19q0 4 10.5 13.5t43.5 32.5t73 48l98 60q-22 7 -43 14.5t-43.5 18t-46 23.5t-46.5 29q-17 -13 -42.5 -28t-43.5 -25q-40 -26 -63.5 -41t-52.5 -27
q-7 -3 -15.5 7t-8.5 19q0 5 4 8l116 68q27 16 42.5 25t29.5 19q-37 29 -58.5 63t-21.5 72q0 51 35.5 87.5t86.5 36.5q47 0 82.5 -30.5t35.5 -75.5q0 -37 -17 -67.5t-79 -84.5q19 -12 28.5 -17t43.5 -21.5t62 -26t56 -18.5z" />
    <glyph glyph-name="integral" unicode="&#x222b;" horiz-adv-x="210" 
d="M150 402q0 -21 -15.5 -37.5t-37.5 -16.5t-38 16t-16 38q0 21 16 37t38 16q21 0 37 -16t16 -37zM150 149q0 -21 -16 -37t-37 -16t-37.5 15.5t-16.5 37.5q0 21 16 37t38 16q21 0 37 -16t16 -37z" />
    <glyph glyph-name="ordfeminine" unicode="&#xaa;" horiz-adv-x="355" 
d="M349 -189l-8 -11q-8 0 -61.5 62t-98.5 168.5t-45 252.5q0 144 44 252t80.5 153t80.5 89l6 -6q-4 0 -50 -75t-84 -183t-38 -230q0 -126 39.5 -232.5t84 -173t50.5 -66.5z" />
    <glyph glyph-name="ordmasculine" unicode="&#xba;" horiz-adv-x="355" 
d="M236 283q0 -146 -45 -253t-96 -166.5t-64 -63.5l-8 11q5 0 50 66.5t84.5 174t39.5 231.5t-38 231.5t-83.5 182t-50.5 74.5l6 6q33 -30 75 -81.5t86 -159.5t44 -253z" />
    <glyph glyph-name="Omega" unicode="&#x3a9;" horiz-adv-x="687" 
d="M471 331q-10 -4 -30 -9.5t-31 -5.5q-11 -1 -19 -1q-14 0 -21.5 1.5t-23.5 9.5q0 -74 -36.5 -130.5t-102.5 -56.5q-63 0 -101 43.5t-73 119.5q-3 7 6 14t20 7q7 0 29.5 -43.5t44.5 -72t74 -28.5q50 0 74.5 43t24.5 104q0 73 -32 124.5t-95 51.5q-26 0 -39 -4t-37 -18
q-8 -5 -19.5 3.5t-11.5 17.5q0 4 15 16.5t33.5 18.5t58.5 6q70 0 112.5 -52t52.5 -130q11 -5 29 -7.5t28 -1.5q36 0 70 16v177q0 12 20 12t20 -12v-460q0 -25 17.5 -41.5t48.5 -16.5q14 0 24 12t19 27.5t19 15.5t19.5 -6.5t5.5 -13.5q-21 -36 -41.5 -55.5t-45.5 -19.5
q-51 0 -78.5 27.5t-27.5 70.5v247z" />
    <glyph glyph-name="ae" unicode="&#xe6;" horiz-adv-x="235" 
d="M172 630q-13 -6 -26 -11q-12 -8 -20 -21l-22 -40q15 -4 29.5 -11t14.5 -29t-11.5 -37t-34.5 -15q-20 0 -29 19t-9 43q0 40 32.5 86t55.5 46z" />
    <glyph glyph-name="oslash" unicode="&#xf8;" horiz-adv-x="252" 
d="M138 790q-15 -50 -44 -99t-104 -49q-57 0 -102.5 49t-45.5 97l8 10q0 -36 45 -79t95 -43q63 0 92.5 39t47.5 79zM231 61q-21 -36 -41.5 -55.5t-45.5 -19.5q-51 0 -78.5 27.5t-27.5 70.5v460q0 12 21 12q19 0 19 -12v-460q0 -25 17.5 -41.5t48.5 -16.5q14 0 24 12t19 27.5
t19 15.5t19.5 -6.5t5.5 -13.5z" />
    <glyph glyph-name="questiondown" unicode="&#xbf;" 
d="M534 351h-504v30h504v-30zM534 181h-504v30h504v-30z" />
    <glyph glyph-name="exclamdown" unicode="&#xa1;" horiz-adv-x="698" 
d="M239 418q44 39 58 55.5t14 47.5q0 23 -19 38t-44 15q-28 0 -46.5 -19.5t-18.5 -47.5q0 -25 15 -47.5t41 -41.5zM349 357q20 6 40 6q24 0 35.5 -2.5t17.5 -8.5t6 -12q0 -9 -5.5 -15.5t-12.5 -3.5q-14 7 -20 8.5t-21 1.5q-41 0 -76 -28t-35 -70q0 -45 36 -74t85 -29
q14 0 51.5 13.5t41.5 14.5v386q0 12 21 12q19 0 19 -12v-460q0 -25 17.5 -41.5t48.5 -16.5q14 0 24 12t19 27.5t19 15.5t19.5 -6.5t5.5 -13.5q-21 -36 -41.5 -55.5t-45.5 -19.5q-51 0 -78.5 27.5t-27.5 70.5v42q-49 -28 -93 -28q-63 0 -108 38.5t-45 98.5q0 33 18.5 60.5
t48.5 45.5l-14 6q-14 7 -29 15t-28 17q-15 -12 -37 -24t-43 -25.5t-40.5 -26t-41.5 -21.5q-6 -2 -12.5 5.5t-6.5 15.5q0 4 3 6l93 55q11 6 28.5 16t29.5 19q-29 23 -46.5 51t-17.5 57q0 41 28 70t69 29q38 0 66.5 -24.5t28.5 -60.5q0 -37 -18 -61.5t-59 -59.5q14 -9 25 -14
l22 -10z" />
    <glyph glyph-name="logicalnot" unicode="&#xac;" horiz-adv-x="610" 
d="M366 77q-7 -1 -15.5 -1.5t-12.5 -0.5q-55 0 -89.5 27.5t-34.5 77.5q0 57 42 89.5t100 32.5q4 1 6 -4t2 -10q0 -10 -5 -10q-48 -5 -84 -28.5t-36 -69.5q0 -43 36 -61.5t89 -18.5q8 0 8 -14q0 -9 -6 -9zM431 192l-49 -13l-69 -16l-9 27q13 0 26.5 1.5t33.5 6.5l67 16v134
q0 10 -7 18t-14 2h-182q-58 0 -103 -31.5t-45 -82.5q0 -87 62 -153.5t108 -87.5t46 -28q0 -9 -9 -19t-17 -7q-78 39 -155.5 120.5t-77.5 174.5q0 37 20 68.5t54 52.5q-6 11 -21.5 36.5t-15.5 42.5q0 62 80 88t168 26q12 0 12 -19t-12 -21q-82 -6 -145 -16t-63 -58
q0 -15 15.5 -37t16.5 -24q38 15 82 15h186q57 0 57 -56v-268q0 -25 17.5 -41.5t48.5 -16.5q14 0 24 12t19 27.5t19 15.5t19.5 -6.5t5.5 -13.5q-21 -36 -41.5 -55.5t-45.5 -19.5q-51 0 -78.5 27.5t-27.5 70.5v108z" />
    <glyph glyph-name="radical" unicode="&#x221a;" horiz-adv-x="470" 
d="M319 44q-33 -29 -74.5 -50.5t-88.5 -21.5q-53 0 -92.5 35t-39.5 75q0 28 12.5 47t33.5 32q-50 49 -50 131q0 64 57 107t107.5 50.5t78.5 21.5t28 42q0 18 -3.5 26t-17.5 19q-7 6 3.5 16.5t20.5 10.5q5 0 14.5 -10.5t16 -25t6.5 -34.5q0 -42 -40 -69.5t-89.5 -34.5
t-95.5 -38t-46 -81q0 -66 43 -105t125 -39l35 2q-16 34 -16 45q0 24 18.5 45.5t42.5 21.5t37 -21.5t13 -50.5q0 -19 -11.5 -34.5t-31.5 -26.5q24 -45 42 -77t44 -77q3 -6 -4 -13.5t-22 -7.5q-7 0 -10 5zM99 138q-14 -13 -25 -29.5t-11 -37.5q0 -24 32.5 -44.5t62.5 -20.5
q39 0 83 26q46 33 61 43l-21 40q-25 -7 -53 -7q-38 0 -70 7.5t-59 22.5z" />
    <glyph glyph-name="florin" unicode="&#x192;" horiz-adv-x="468" 
d="M129 121q-14 16 -25 25t-18 9l-5 -9q0 -25 48 -25zM330 250q-21 -8 -58.5 -24.5t-72.5 -33.5l-32 34q38 13 81.5 26.5t65.5 22.5q-14 19 -32.5 36t-41.5 33q-11 -6 -68 -19t-113 -26q-8 -2 -15 8t-7 19q0 7 6 9q38 7 78.5 15.5t72.5 19.5q-46 25 -76.5 51t-30.5 62
q0 40 56 69.5t107 29.5q13 0 23.5 -3t10.5 -19q0 -19 -28.5 -23t-73.5 -10q-55 -13 -55 -44q0 -38 47 -67q34 -18 68 -35q20 0 87 16t97 21q8 2 14.5 -7.5t6.5 -19.5q0 -9 -7 -9q-20 0 -66 -10t-88 -20q39 -35 67.5 -74.5t28.5 -68.5q0 -62 -48.5 -93.5t-120.5 -31.5
q34 -38 54 -61t37 -48q4 -7 -6.5 -16.5t-19.5 -9.5q-5 0 -26 28.5t-42.5 57t-41.5 51.5q-51 6 -89 20.5t-38 39.5q0 26 14.5 38.5t30.5 12.5q24 0 49 -21.5t46 -53.5q54 0 107.5 19.5t53.5 67.5q0 20 -12 41z" />
    <glyph glyph-name="approxequal" unicode="&#x2248;" horiz-adv-x="831" 
d="M398 347q65 0 117 1.5t120 3.5q37 0 41 -4t6 -27.5t2 -58.5q0 -63 -2.5 -117.5t-6.5 -101.5h-25q1 26 5 93t4 109q0 70 -5.5 75.5t-46.5 5.5q-61 0 -112 -1t-96 -2q0 -63 1.5 -115t3.5 -119q0 -37 -4 -41t-27.5 -6t-58.5 -2q-63 0 -117.5 2.5t-101.5 6.5v25q26 -1 93 -5
t109 -4q70 0 75.5 5.5t5.5 46.5q0 60 -1 110t-2 95q-63 0 -116 -1t-102 -2h-11q-41 0 -44 3t-4 16.5t-1 35.5q0 29 3.5 117t3.5 118q0 19 -1 24q0 7 12 7q13 0 13 -7q-3 -72 -5 -126t-2 -97q0 -56 4.5 -61.5t55.5 -5.5q59 0 105.5 1t87.5 2q0 64 -1 117t-2 103q0 53 3 56
t16.5 4t35.5 1q29 0 117 -3.5t118 -3.5q19 0 24 1q8 0 8 -12q0 -13 -8 -13q-72 3 -126 5t-97 2q-56 0 -61.5 -4.5t-5.5 -56.5q0 -60 1 -107t2 -88z" />
    <glyph glyph-name="Delta" unicode="&#x2206;" horiz-adv-x="759" 
d="M205 516q-35 19 -64 19q-35 0 -58.5 -29.5t-23.5 -68.5q0 -43 19.5 -74t56.5 -31q39 0 57.5 31t18.5 87zM381 329q-53 -63 -85.5 -117t-32.5 -87q0 -49 12.5 -74t71.5 -25q44 0 74.5 33.5t30.5 79.5q0 36 -18.5 85t-52.5 105zM589 84q0 -25 17.5 -41.5t48.5 -16.5
q14 0 24 12t19 27.5t19 15.5t19.5 -6.5t5.5 -13.5q-21 -36 -41.5 -55.5t-45.5 -19.5q-51 0 -78.5 27.5t-27.5 70.5v418l-43 -41l-51 -51t-50 -53q39 -60 63 -118.5t24 -99.5q0 -63 -41 -108t-102 -45q-86 0 -106 36t-20 105q0 37 37.5 100.5t97.5 135.5q-24 35 -52 67
t-57 56l2 -35q0 -74 -30.5 -116.5t-85.5 -42.5q-53 0 -84.5 44t-31.5 103q0 54 35 95t87 41q54 0 118.5 -52t122.5 -132q43 50 82.5 87.5t60 53.5t41.5 32q8 6 16 -6t8 -24z" />
    <glyph glyph-name="guillemotleft" unicode="&#xab;" 
d="M534 268h-236v-238q0 -9 -15 -9t-15 9v238h-238q-9 0 -9 15t9 15h238v236q0 9 15 9t15 -9v-236h236q9 0 9 -15t-9 -15z" />
    <glyph glyph-name="guillemotright" unicode="&#xbb;" horiz-adv-x="10" 
d="M41 -242q5 -6 -5 -15t-20 -9q-6 0 -31 36.5t-85.5 100t-97.5 63.5q-32 0 -48 -4.5t-55 -19.5q-7 -3 -14 7t-7 20q0 6 18 14t44.5 15.5t61.5 7.5q42 0 115 -72.5t124 -143.5z" />
    <glyph glyph-name="ellipsis" unicode="&#x2026;" horiz-adv-x="392" 
d="M164 634q-9 -5 -18.5 -12.5t-19.5 -23.5l-22 -40q15 -4 29.5 -11t14.5 -29t-11.5 -37t-34.5 -15q-20 0 -29 19t-9 43q0 40 32.5 86t55.5 46zM317 637q-7 -4 -16.5 -12.5t-19.5 -25.5l-22 -40q15 -4 29.5 -11t14.5 -29t-11.5 -37t-34.5 -15q-20 0 -29 19t-9 43
q0 40 32.5 86t55.5 46z" />
    <glyph glyph-name="nonbreakingspace" unicode="&#xa0;" horiz-adv-x="100" 
 />
    <glyph glyph-name="Atilde" unicode="&#xc3;" horiz-adv-x="170" 
 />
    <glyph glyph-name="Otilde" unicode="&#xd5;" horiz-adv-x="70" 
 />
    <glyph glyph-name="OE" unicode="&#x152;" horiz-adv-x="664" 
d="M513 101q0 -50 -54 -78t-127 -28t-127 27.5t-54 78.5q-49 0 -77.5 53.5t-28.5 127.5t28 127.5t78 53.5q0 50 53.5 78t127.5 28q75 0 128 -27.5t53 -78.5q50 0 78 -54t28 -127q0 -74 -27.5 -127.5t-78.5 -53.5z" />
    <glyph glyph-name="oe" unicode="&#x153;" horiz-adv-x="664" 
d="M513 101q0 -50 -54 -78t-127 -28t-127 27.5t-54 78.5q-49 0 -77.5 53.5t-28.5 127.5t28 127.5t78 53.5q0 50 53.5 77.5t127.5 27.5t127.5 -27.5t53.5 -77.5q50 0 78 -54t28 -127q0 -74 -27.5 -127.5t-78.5 -53.5zM488 123q44 0 68 47t24 111q0 66 -23.5 112t-68.5 46
q0 43 -46 67t-110 24t-110 -23.5t-46 -67.5q-43 0 -67.5 -46.5t-24.5 -111.5q0 -64 24 -111t68 -47q0 -43 46 -67t110 -24t110 23.5t46 67.5z" />
    <glyph glyph-name="endash" unicode="&#x2013;" horiz-adv-x="282" 
d="M248 266h-214v32h214v-32z" />
    <glyph glyph-name="emdash" unicode="&#x2014;" horiz-adv-x="20" 
d="M-71 -78h-504v31h504v-31z" />
    <glyph glyph-name="quotedblleft" unicode="&#x201c;" horiz-adv-x="392" 
d="M164 634q-9 -5 -18.5 -12.5t-19.5 -23.5l-22 -40q15 -4 29.5 -11t14.5 -29t-11.5 -37t-34.5 -15q-20 0 -29 19t-9 43q0 40 32.5 86t55.5 46zM317 637q-7 -4 -16.5 -12.5t-19.5 -25.5l-22 -40q15 -4 29.5 -11t14.5 -29t-11.5 -37t-34.5 -15q-20 0 -29 19t-9 43
q0 40 32.5 86t55.5 46z" />
    <glyph glyph-name="quotedblright" unicode="&#x201d;" horiz-adv-x="392" 
d="M336 604q0 -40 -32.5 -86t-55.5 -46l-12 26q9 5 18.5 12.5t19.5 23.5l22 40q-15 4 -29.5 11t-14.5 29t11.5 37t34.5 15q20 0 29 -19t9 -43zM181 603q0 -40 -32.5 -86t-55.5 -46l-10 24q7 4 16.5 13t19.5 25l22 40q-15 4 -29.5 11t-14.5 29t11.5 37t34.5 15q20 0 29 -19
t9 -43z" />
    <glyph glyph-name="quoteleft" unicode="&#x2018;" horiz-adv-x="687" 
d="M679 71q0 -21 -16 -37t-37 -16t-37 16t-16 37t15.5 37.5t37.5 16.5q21 0 37 -16t16 -38zM519 264q19 59 19 120q0 64 -24.5 113t-73.5 49q-40 0 -68.5 -32.5t-28.5 -75.5q0 -71 50.5 -122.5t125.5 -51.5zM102 288q-36 31 -56.5 62.5t-20.5 64.5q0 53 39 93.5t88 55.5
q8 3 15.5 -5.5t7.5 -19.5q0 -8 -19 -20.5t-52 -34.5q-39 -31 -39 -69q0 -28 17.5 -49.5t54.5 -52.5q32 30 84 30q7 0 11.5 -7.5t4.5 -17.5q0 -13 -32.5 -19t-77.5 -38.5t-45 -84.5q0 -59 52.5 -93.5t119.5 -34.5q76 0 144 47.5t106 129.5q-88 8 -144.5 68.5t-56.5 144.5
q0 60 39.5 104t97.5 44q64 0 101 -61.5t37 -140.5q0 -163 -99 -269.5t-225 -106.5q-84 0 -148 46t-64 122q0 33 16 61.5t44 50.5zM550 575q3 -6 -3.5 -10.5t-16.5 -4.5q-13 0 -45 61.5t-62 105.5t-82 44q-25 0 -35 -4.5t-20 -9.5q-8 -3 -16 6.5t-8 19.5q0 7 10 11.5t24 11.5
q15 5 45 5q66 0 128 -101.5t81 -134.5z" />
    <glyph glyph-name="quoteright" unicode="&#x2019;" 
d="M534 267h-504v31h504v-31z" />
    <glyph glyph-name="divide" unicode="&#xf7;" horiz-adv-x="220" 
d="M206 704l-178 -844h-16l178 844h16z" />
    <glyph glyph-name="lozenge" unicode="&#x25ca;" horiz-adv-x="606" 
d="M326 100q-55 0 -102.5 31t-47.5 75q0 45 39 71.5t91 26.5q29 0 55 -12q21 -13 23 -14l-10 -36q-4 5 -15 16.5t-47 11.5q-44 0 -73 -19.5t-29 -58.5q0 -25 30 -42.5t68 -17.5t80 20l32 22v190q0 3 -41 4t-52 1h-62t-47 -1q-56 0 -102 -31.5t-46 -82.5q0 -84 62.5 -137
t115.5 -77t53 -31q0 -9 -9 -19t-17 -7q-92 46 -168.5 112.5t-76.5 158.5q0 39 18.5 69.5t52.5 51.5q-6 11 -21.5 36.5t-15.5 42.5q0 62 80 88t168 26q12 0 12 -19t-12 -21q-82 -6 -145 -16t-63 -58q0 -15 15.5 -37t16.5 -24q15 6 28.5 7.5t40.5 1.5h13h188q25 0 39.5 -7
t14.5 -16v-295q0 -25 17.5 -41.5t48.5 -16.5q14 0 24 12t19 27.5t19 15.5t19.5 -6.5t5.5 -13.5q-21 -36 -41.5 -55.5t-45.5 -19.5q-51 0 -78.5 27.5t-27.5 70.5v44q-15 -11 -42 -19.5t-52 -8.5z" />
    <glyph glyph-name="ydieresis" unicode="&#xff;" horiz-adv-x="228" 
 />
    <glyph glyph-name="Ydieresis" unicode="&#x178;" horiz-adv-x="588" 
d="M252 167q-32 -21 -59.5 -45t-30.5 -42q-4 -31 22 -49.5t62 -18.5q58 0 119.5 61t59.5 75q-25 -7 -53 -7q-73 0 -120 26zM165 308l-1 17q0 64 57 107t107.5 50.5t78.5 21.5t28 42q0 18 -3.5 26t-17.5 19q-7 6 3.5 16.5t20.5 10.5q5 0 14.5 -10.5t16 -25t6.5 -34.5
q0 -42 -40 -69.5t-89.5 -34.5t-95.5 -38t-46 -81q0 -66 43 -105t125 -39l35 2q-16 34 -16 45q0 24 18.5 45.5t42.5 21.5t37 -21.5t13 -50.5q0 -19 -11.5 -34.5t-31.5 -26.5l75 -188l-36 -16l-58 143q-38 -44 -89 -87.5t-115 -43.5q-45 0 -83.5 29.5t-38.5 66.5q0 9 5.5 22.5
t6.5 15.5q-26 4 -55 39t-29 69q0 35 35 61.5t88 34.5zM171 268q-32 0 -59.5 -15t-27.5 -55q0 -34 20.5 -46.5t41.5 -19.5l24 18l56 34q-41 32 -55 84z" />
    <glyph glyph-name="fraction" unicode="&#x2215;" horiz-adv-x="698" 
d="M311 521q0 23 -19 38t-44 15q-28 0 -46.5 -19.5t-18.5 -47.5q0 -25 15 -47.5t41 -41.5q44 39 58 55.5t14 47.5zM492 164v380q0 12 21 12q19 0 19 -12v-460q0 -25 17.5 -41.5t48.5 -16.5q14 0 24 12t19 27.5t19 15.5t19.5 -6.5t5.5 -13.5q-21 -36 -41.5 -55.5t-45.5 -19.5
q-51 0 -78.5 27.5t-27.5 70.5v24q-19 -20 -37.5 -30.5t-43.5 -10.5q-51 0 -90 25t-39 68q0 19 0.5 38.5t3.5 34.5q-23 -13 -73 -41.5t-95 -50.5q-8 -3 -16.5 6.5t-8.5 20.5q0 6 32 22.5t107 58t141 78.5q-59 11 -73.5 19t-29.5 16t-28 17q-15 -12 -37 -24t-43 -25.5
t-40.5 -26t-41.5 -21.5q-6 -2 -12.5 5.5t-6.5 15.5q0 4 3 6l93 55q11 6 28.5 16t29.5 19q-29 23 -46.5 51t-17.5 57q0 41 28 70t69 29q38 0 66.5 -24.5t28.5 -60.5q0 -37 -18 -61.5t-59 -59.5q14 -9 25 -14t29 -14t36.5 -13.5t35.5 -4.5q11 0 19 1l16 2q6 3 13 6t12 7
q7 6 16 -5t9 -22q0 -6 -10 -12t-57.5 -31t-66.5 -36q-12 -17 -16.5 -45t-4.5 -59q0 -27 27 -40t62 -13q22 0 38.5 13.5t42.5 43.5z" />
    <glyph glyph-name="currency" unicode="&#xa4;" horiz-adv-x="612" 
d="M293 280l-172 193l2 -162q0 -31 26 -50t61 -19q30 0 50 14t33 24zM316 292l55 40q82 55 105 74.5t23 59.5q0 33 -26.5 53.5t-62.5 20.5q-29 0 -55 -9.5t-47 -23.5q-6 -4 -15 6.5t-9 19.5q0 5 19 17.5t45 21t62 8.5q53 0 91 -32t38 -82q0 -58 -42 -92t-103 -75.5t-87 -68
t-26 -72.5t35.5 -76t83.5 -30q35 0 87 22.5t74 44.5q6 6 16 -4.5t10 -20.5q0 -6 -18.5 -20t-75 -38t-93.5 -24q-63 0 -111 42t-48 104q0 28 9 52q-13 -5 -28 -5q-10 0 -38 3.5t-62.5 31t-34.5 71.5v191q0 10 -11 15.5t-24 5.5q-7 0 -27 -11q-9 -4 -20.5 7.5t-4.5 18.5
q10 9 23.5 15t28.5 6q26 0 45.5 -12.5t24.5 -35.5z" />
    <glyph glyph-name="guilsinglleft" unicode="&#x2039;" horiz-adv-x="675" 
d="M1909 178q0 -72 -57 -121t-139 -49t-135.5 51t-60.5 113l-2 36q-7 0 -13 1t-13 3q-28 0 -64 53t-36 91v192q-7 2 -21 2h-16q-8 -3 -16 -5.5t-17 -11.5t-14 -15v40q7 4 21.5 10t42.5 6q13 0 25.5 -11t30.5 -31l196 -210q60 26 119 60.5t59 81.5q0 44 -17.5 67t-84.5 23
q-18 0 -44.5 -6t-39.5 -14l-18 34q6 3 31 7.5t43 4.5q80 0 119 -41.5t39 -84.5q0 -68 -74 -110q-70 -33 -139 -65q-75 -43 -75 -111q0 -57 35 -93.5t109 -36.5q77 0 139.5 45t62.5 109q0 39 -32 73t-66 41l6 10q39 -18 77.5 -48t38.5 -90zM1615 318l-188 200v-196
q0 -53 18.5 -68.5t43.5 -15.5q21 0 34 6q3 7 14.5 21t22.5 23.5t26 16.5t29 13zM488 319q-62 -23 -124 -58t-62 -101q0 -51 38 -85t93 -34q69 0 119 49t50 118q0 41 -32 65.5t-82 45.5zM296 254q-88 111 -175 222v-174q0 -34 28 -53t57.5 -22.5t36.5 -3.5q15 0 27.5 6.5
t25.5 24.5zM330 286q23 18 55 32.5t64 25.5q-40 29 -62.5 57t-22.5 60q0 49 58 86t90 37q8 0 12.5 -10t4.5 -17q0 -10 -27 -15t-62.5 -23.5t-35.5 -55.5q0 -35 33 -60.5t71.5 -49.5t79.5 -49q54 -44 54 -96q0 -86 -61.5 -146.5t-147.5 -60.5q-72 0 -121.5 45.5t-49.5 113.5
q0 6 3.5 18.5t6.5 23.5q-17 -7 -31 -13t-27 -4q-58 7 -95.5 37t-37.5 80v212q0 11 -12.5 17.5t-26.5 6.5q-9 0 -16.5 -4.5t-13.5 -7.5q-10 -5 -23 7.5t-5 20.5q12 11 26 17.5t32 6.5q27 0 50 -14.5t28 -38.5z" />
    <glyph glyph-name="guilsinglright" unicode="&#x203a;" horiz-adv-x="438" 
d="M245 256v-228q43 11 71.5 45t28.5 78q0 38 -26 60t-74 45zM214 309v196q-39 0 -65 -30t-26 -70q0 -42 28 -60.5t63 -35.5zM214 26v245q-64 31 -94.5 56.5t-30.5 75.5q0 59 34.5 97.5t90.5 38.5v74h31v-75q34 -5 63 -24.5t45 -49.5l-26 -21q-15 26 -35.5 42.5t-46.5 19.5
v-212q77 -40 105.5 -63.5t28.5 -81.5q0 -56 -39.5 -99.5t-94.5 -53.5v-81h-31v80q-56 0 -96 30t-59 84l28 13q17 -43 49.5 -69t77.5 -26z" />
    <glyph glyph-name="fi" unicode="&#xf001;" horiz-adv-x="438" 
d="M64 -6l-19 26q18 20 43 33t51 13q19 15 32.5 38t13.5 46l-2 21h-89v32h80l-57 97q-18 28 -27.5 52t-9.5 53q0 57 41.5 95.5t98.5 38.5q58 0 97 -41t39 -99h-33q0 47 -29.5 77.5t-76.5 30.5q-43 0 -74 -31t-31 -74q0 -21 7.5 -37.5t25.5 -45t37 -60t29 -56.5h96v-32h-90
l1 -23q0 -25 -10.5 -48t-29.5 -41l7 -2q26 -10 57.5 -21.5t46.5 -11.5q23 0 42.5 17.5t31.5 41.5l30 -18q-17 -30 -43 -50.5t-57 -20.5q-17 0 -37.5 5.5t-41.5 15.5q-27 9 -44 14.5t-29 5.5q-22 0 -39.5 -10.5t-37.5 -30.5z" />
    <glyph glyph-name="fl" unicode="&#xf002;" horiz-adv-x="438" 
d="M357 400v-42q-21 23 -47 37.5t-55 17.5v-283q66 6 104 59l2 -42q-24 -21 -50.5 -33.5t-55.5 -12.5v-91h-32v92q-62 6 -104.5 53.5t-42.5 111.5q0 69 40 118.5t107 55.5v83h32v-82q55 0 102 -42zM223 131v281q-50 -8 -82.5 -48.5t-32.5 -92.5t32.5 -92.5t82.5 -47.5z" />
    <glyph glyph-name="daggerdbl" unicode="&#x2021;" horiz-adv-x="720" 
d="M646 285q0 -112 -82.5 -189.5t-199.5 -77.5t-199.5 77.5t-82.5 189.5q0 113 83 193t199 80t199 -80t83 -193zM613 285q0 101 -73.5 176.5t-175.5 75.5q-103 0 -176 -75t-73 -177q0 -99 73.5 -172.5t175.5 -73.5q101 0 175 73t74 173zM488 163q0 -5 -8 -7.5t-16 -5.5
t-32 -7.5t-50 -4.5q-76 0 -125 37.5t-49 116.5q0 56 47 102.5t132 46.5q31 0 46 -3t39 -11q16 -3 16 -11v-51h-4q-3 30 -27 50.5t-73 20.5q-63 0 -95 -38t-32 -102q0 -70 32.5 -111t100.5 -41q41 0 66.5 18.5t41.5 50.5z" />
    <glyph glyph-name="periodcentered" unicode="&#xb7;" horiz-adv-x="664" 
d="M619 297l-287 -287l-288 288l287 287z" />
    <glyph glyph-name="periodcentered" unicode="&#x2219;" horiz-adv-x="664" 
d="M619 297l-287 -287l-288 288l287 287z" />
    <glyph glyph-name="quotesinglbase" unicode="&#x201a;" horiz-adv-x="664" 
d="M616 284q0 -117 -83.5 -200.5t-200.5 -83.5q-116 0 -199.5 83.5t-83.5 200.5t83 200t200 83t200.5 -83.5t83.5 -199.5z" />
    <glyph glyph-name="quotedblbase" unicode="&#x201e;" horiz-adv-x="260" 
 />
    <glyph glyph-name="perthousand" unicode="&#x2030;" horiz-adv-x="10" 
d="M-125 787q0 -17 -11.5 -30.5t-28.5 -13.5q-16 0 -28 13t-12 31t11.5 31.5t28.5 13.5q16 0 28 -14t12 -31zM-2 808q-26 -68 -66 -118t-102 -50q-58 0 -90 37.5t-82 120.5q-3 5 4 13t22 8q7 0 22.5 -31.5t40 -70t83.5 -38.5q46 0 71.5 33.5t43 71t34.5 37.5q10 0 15.5 -3.5
t3.5 -9.5z" />
    <glyph glyph-name="Acircumflex" unicode="&#xc2;" horiz-adv-x="10" 
d="M-18 -144q3 -3 -9 -12t-17 -4q-45 40 -86 73.5t-77 62.5q-33 -29 -76 -66t-85 -68q-9 -7 -25 5t-7 19q53 41 101.5 76t94.5 68q41 -30 87.5 -67t98.5 -87z" />
    <glyph glyph-name="Ecircumflex" unicode="&#xca;" horiz-adv-x="415" 
d="M448 420v-39l-252 -1q-26 -8 -51 -24t-25 -58q0 -68 43 -143t112 -140q9 -8 -5.5 -23.5t-22.5 -6.5q-24 27 -61 70.5t-71.5 110t-34.5 132.5q0 43 23 75q-5 0 -20 1t-27 1q-17 -1 -25 -1q-16 0 -16 24q0 22 13 19q20 -4 36 -5.5t40 -1.5q17 0 27.5 0.5t18.5 1.5
q19 8 46 8h150.5h101.5z" />
    <glyph glyph-name="Aacute" unicode="&#xc1;" horiz-adv-x="612" 
d="M408 159q-43 -33 -94.5 -55.5t-100.5 -22.5q-50 0 -107 35t-57 90q0 50 43 87q-11 18 -38.5 49.5t-27.5 57.5q0 5 5 30t35.5 46t78.5 33.5t74 22.5t52 30q7 5 15 -5t8 -21q0 -7 -18.5 -16t-52 -24.5t-71 -25t-58 -21.5t-24 -29t-3.5 -24q0 -22 25.5 -46.5t31.5 -32.5
q29 18 56.5 29.5t52.5 16.5t55 5q5 0 8 -6t3 -14q0 -18 -21.5 -21t-39.5 -5t-62.5 -22t-65.5 -42t-21 -50q0 -40 42 -63.5t82 -23.5q39 0 94.5 26.5t100.5 58.5v338q0 12 21 12q19 0 19 -12v-460q0 -25 17.5 -41.5t48.5 -16.5q14 0 24 12t19 27.5t19 15.5t19.5 -6.5
t5.5 -13.5q-21 -36 -41.5 -55.5t-45.5 -19.5q-51 0 -78.5 27.5t-27.5 70.5v75z" />
    <glyph glyph-name="Edieresis" unicode="&#xcb;" horiz-adv-x="10" 
d="M11 -114q0 -61 -56.5 -100t-125.5 -39q-67 0 -113.5 23t-78 57t-92.5 110q-6 8 6.5 15t19.5 7t41.5 -44t85 -86t131.5 -42q54 0 98 26.5t44 72.5q0 35 -30.5 56t-71.5 21q-25 0 -41 -10.5t-26 -27t-16 -16.5q-12 0 -20 10t-5 16q15 30 45 49t63 19q56 0 99 -33t43 -84z
M-100 682q0 -20 -14.5 -34.5t-33.5 -14.5q-20 0 -34.5 14.5t-14.5 34.5q0 19 14.5 33.5t34.5 14.5q19 0 33.5 -14.5t14.5 -33.5z" />
    <glyph glyph-name="Egrave" unicode="&#xc8;" horiz-adv-x="246" 
d="M78 84q0 -25 17.5 -41.5t48.5 -16.5q14 0 24 12t19 27.5t19 15.5t19.5 -6.5t5.5 -13.5q-21 -36 -41.5 -55.5t-45.5 -19.5q-51 0 -78.5 27.5t-27.5 70.5v586q0 56 77 89t204 33q120 0 265 -42t227 -128q7 -8 -5.5 -16.5t-20.5 -8.5q-5 0 -42.5 38.5t-176 77.5t-247.5 39
q-117 0 -179 -18t-62 -57v-593z" />
    <glyph glyph-name="Iacute" unicode="&#xcd;" horiz-adv-x="336" 
d="M150 525l212 -241v-64q-21 -17 -46 -26.5t-52 -9.5q-13 0 -45.5 4t-70 34t-37.5 80v212q0 11 -12.5 17.5t-26.5 6.5q-9 0 -16.5 -4.5t-13.5 -7.5q-10 -5 -23 7.5t-5 20.5q12 11 26 17.5t32 6.5q27 0 50 -14.5t28 -38.5zM338 252l-187 212v-162q0 -34 28 -53t69 -24
q20 -3 43.5 5t46.5 22z" />
    <glyph glyph-name="Icircumflex" unicode="&#xce;" horiz-adv-x="464" 
d="M378 113q4 9 4 21q0 8 -10 10q-12 2 -12 -14q0 -3 5 -8t13 -9zM195 578q-5 15 -17 21.5t-27 6.5q-14 0 -25 -3t-20 -7l-10 28q10 2 26 5t33 3q25 0 43 -9t22 -27t4 -27q0 -39 -50 -60q-37 -13 -73 -25q-37 -16 -37 -48t29.5 -71.5t62.5 -66.5q67 37 139 51q8 2 12.5 -8
t4.5 -18q0 -11 -43.5 -19t-101 -39.5t-57.5 -94.5q0 -53 37.5 -88.5t92.5 -35.5q70 0 113 34q-33 14 -33 50q0 23 15.5 38.5t37.5 15.5t35.5 -14.5t13.5 -35.5q0 -54 -56.5 -91t-125.5 -37q-71 0 -120.5 46.5t-49.5 117.5q0 32 14.5 59t39.5 47q-39 34 -69.5 77.5
t-30.5 82.5q0 44 27.5 57t78.5 29.5t59 24.5t8 20z" />
    <glyph glyph-name="Idieresis" unicode="&#xcf;" horiz-adv-x="912" 
d="M568 121q-14 16 -25 25t-18 9l-5 -9q0 -25 48 -25zM129 121q-14 16 -25 25t-18 9l-5 -9q0 -25 48 -25zM618 382q-47 26 -69.5 45.5t-22.5 55.5q0 40 56 69.5t107 29.5q13 0 23.5 -3t10.5 -19q0 -19 -28.5 -23t-73.5 -10q-55 -13 -55 -44q0 -38 47 -67q34 -18 68 -35
q20 0 87 16t97 21q8 2 14.5 -7.5t6.5 -19.5q0 -9 -7 -9q-20 0 -66 -10t-88 -20q39 -35 67.5 -74.5t28.5 -68.5q0 -62 -48.5 -93.5t-120.5 -31.5q34 -38 54 -61t37 -48q4 -7 -6.5 -16.5t-19.5 -9.5q-5 0 -26 28.5t-42.5 57t-41.5 51.5q-51 6 -89 20.5t-38 39.5
q0 26 14.5 38.5t30.5 12.5q24 0 49 -21.5t46 -53.5q54 0 107.5 19.5t53.5 67.5q0 32 -29 68t-73 67q-9 -4 -62 -4q-35 0 -70 1t-64 3q-37 0 -97 1.5t-94 2.5q37 -34 63.5 -72t26.5 -67q0 -62 -48.5 -93.5t-120.5 -31.5q34 -38 54 -61t37 -48q4 -7 -6.5 -16.5t-19.5 -9.5
q-5 0 -26 28.5t-42.5 57t-41.5 51.5q-51 6 -89 20.5t-38 39.5q0 26 14.5 38.5t30.5 12.5q24 0 49 -21.5t46 -53.5q54 0 107.5 19.5t53.5 67.5q0 32 -29 68t-73 67q-13 -7 -92.5 -35.5t-85.5 -30.5q-7 -3 -13.5 5.5t-6.5 19.5q0 7 10.5 16.5t56 23.5t85.5 27q-46 25 -76.5 51
t-30.5 62q0 40 56 69.5t107 29.5q13 0 23.5 -3t10.5 -19q0 -19 -28.5 -23t-73.5 -10q-55 -13 -55 -44q0 -37 47 -65q34 -17 68 -33q55 -4 114.5 -6.5t105.5 -2.5q75 0 107 1.5t49 4.5z" />
    <glyph glyph-name="Igrave" unicode="&#xcc;" horiz-adv-x="524" 
d="M479 231q0 -82 -48 -142.5t-122 -60.5q-76 0 -129 39.5t-92.5 103.5t-73.5 124q-4 8 6 17t20 9q5 0 21.5 -29.5t51 -89t81.5 -97t115 -37.5q57 0 93.5 48.5t36.5 114.5q0 44 -24 58t-73 14q-18 0 -33 -0.5t-27 -0.5q-72 0 -122 38.5t-50 109.5q0 48 29 82t74 34h206
q12 0 12 -20t-12 -20h-206q-28 0 -45.5 -22.5t-17.5 -53.5q0 -53 37 -80.5t91 -27.5q133 0 167 -25t34 -86zM490 417q0 -20 -14.5 -34.5t-33.5 -14.5q-20 0 -34.5 14.5t-14.5 34.5q0 19 14.5 33.5t34.5 14.5q19 0 33.5 -14.5t14.5 -33.5z" />
    <glyph glyph-name="Oacute" unicode="&#xd3;" horiz-adv-x="458" 
d="M336 320q-19 25 -55 37.5t-65 12.5q-69 0 -107.5 -36.5t-38.5 -79.5q0 -58 34 -103t79.5 -74t81.5 -45t36 -23q0 -9 -9 -19t-17 -7q-92 46 -168.5 112.5t-76.5 158.5q0 39 18.5 69.5t52.5 51.5q-6 11 -21.5 36.5t-15.5 42.5q0 62 80 88t168 26q12 0 12 -20t-12 -20
q-86 0 -147 -12t-61 -62q0 -15 15.5 -37t16.5 -24q22 9 34.5 12.5t43.5 3.5q6 1 9 1q60 0 120.5 -44t60.5 -145q-4 0 -14 -4t-15 -4q-8 0 -8 10q0 22 -3.5 31.5t-15.5 32.5q-24 8 -51 8q-46 0 -82 -18t-36 -49q0 -30 17.5 -43t43.5 -13q16 0 33.5 4.5t26.5 10.5v-36
q-19 -12 -51 -12q-43 0 -74.5 23.5t-31.5 75.5q0 33 42 62t97 29q20 0 28.5 -1.5t25.5 -7.5z" />
    <glyph glyph-name="Ocircumflex" unicode="&#xd4;" horiz-adv-x="542" 
d="M381 329q-53 -63 -85.5 -117t-32.5 -87q0 -49 12.5 -74t71.5 -25q44 0 74.5 33.5t30.5 79.5q0 36 -18.5 85t-52.5 105zM205 516q-35 19 -64 19q-35 0 -58.5 -29.5t-23.5 -68.5q0 -43 19.5 -74t56.5 -31q39 0 57.5 31t18.5 87zM358 363q-24 35 -52 67t-57 56l2 -35
q0 -74 -30.5 -116.5t-85.5 -42.5q-53 0 -84.5 44t-31.5 103q0 54 35 95t87 41q54 0 118.5 -52t122.5 -132q20 23 74.5 34.5t99.5 11.5q2 -4 3 -9t1 -12q0 -15 -13 -15q-15 2 -23 2q-35 0 -67 -11.5t-52 -34.5q39 -60 63 -118.5t24 -99.5q0 -63 -41 -108t-102 -45
q-86 0 -106 36t-20 105q0 37 37.5 100.5t97.5 135.5z" />
    <glyph glyph-name="apple" unicode="&#xf000;" horiz-adv-x="815" 
d="M382 273q-19 -4 -40 -4q-14 0 -24.5 1t-18.5 3q45 -33 60.5 -57.5t15.5 -75.5q0 -62 -51 -105t-116 -43q-63 0 -84 9q-36 23 -58 36t-22 19q0 10 8 20t16 7q39 -25 64 -38t76 -13q49 0 88 31t39 77q0 50 -12.5 71t-56.5 53q-44 -3 -93.5 -8t-79.5 -21q-7 -3 -15.5 7
t-8.5 19q0 5 7.5 10t57.5 10t98 10q-43 35 -75.5 71.5t-32.5 66.5t28 66t91 73q7 4 15 -6t8 -20q0 -5 -3 -8.5t-51 -41t-48 -63.5q0 -27 27 -59.5t67 -68.5l156 6q30 7 65 8t65 2q-57 46 -71.5 66t-14.5 46q0 30 28 66t91 73q7 4 15 -6t8 -20q0 -5 -3 -8.5t-51 -41
t-48 -63.5q0 -27 14.5 -44t55.5 -54q42 5 89 12t79 21q6 3 13 -5t7 -17q0 -5 -15.5 -15t-56 -15.5t-75.5 -8.5q48 -36 74 -73.5t26 -89.5q0 -62 -51 -105t-116 -43q-48 -1 -57 -1q-12 0 -31.5 8t-33 14t-13.5 12q0 14 10 22t15 6q18 -9 37 -18q9 -3 36 -3h37q49 0 88 31
t39 77q0 49 -24 84.5t-69 69.5q-45 -4 -95 -8.5t-99 -12.5z" />
    <glyph glyph-name="Ograve" unicode="&#xd2;" horiz-adv-x="674" 
d="M103 289q-29 22 -49 52t-20 61q0 73 76 104t182 48q7 1 11.5 -7t4.5 -19q0 -13 -56 -19.5t-117 -26t-61 -80.5q0 -33 30 -65.5t53 -32.5l34 4q7 0 19.5 -1t23.5 -1q10 0 10 -16q0 -24 -14 -24q-22 2 -37 2l-37 -4q-43 -11 -72.5 -31.5t-29.5 -56.5q0 -60 55 -97t125 -37
h16q30 0 48 3.5t37 16.5q7 4 15 -6t8 -20q0 -7 -16.5 -15t-42 -13.5t-65.5 -5.5q-86 0 -153 48.5t-67 125.5q0 39 24 67.5t65 45.5zM469 409q-41 -6 -64 -9.5t-61.5 -15t-63.5 -11.5q-8 0 -15 10.5t-7 20.5q0 9 8 11q36 3 55 5t36.5 6.5t62.5 10t49 6.5v101q0 12 21 12
q19 0 19 -12v-460q0 -25 17.5 -41.5t48.5 -16.5q14 0 24 12t19 27.5t19 15.5t19.5 -6.5t5.5 -13.5q-21 -36 -41.5 -55.5t-45.5 -19.5q-51 0 -78.5 27.5t-27.5 70.5v104q-14 -5 -32 -10.5t-34.5 -9t-55 -15t-63.5 -11.5q-8 0 -15 10.5t-7 20.5q0 9 8 11q36 3 55 5t48 9
t46 10.5t50 13.5v187z" />
    <glyph glyph-name="Uacute" unicode="&#xda;" horiz-adv-x="392" 
d="M336 604q0 -40 -32.5 -86t-55.5 -46l-12 26q9 5 18.5 12.5t19.5 23.5l22 40q-15 4 -29.5 11t-14.5 29t11.5 37t34.5 15q20 0 29 -19t9 -43zM181 603q0 -40 -32.5 -86t-55.5 -46l-10 24q7 4 16.5 13t19.5 25l22 40q-15 4 -29.5 11t-14.5 29t11.5 37t34.5 15q20 0 29 -19
t9 -43z" />
    <glyph glyph-name="Ucircumflex" unicode="&#xdb;" horiz-adv-x="436" 
d="M471 331q-10 -4 -30 -9.5t-31 -5.5q-11 -1 -19 -1q-14 0 -21.5 1.5t-23.5 9.5q0 -74 -36.5 -130.5t-102.5 -56.5q-63 0 -101 43.5t-73 119.5q-3 7 6 14t20 7q7 0 29.5 -43.5t44.5 -72t74 -28.5q50 0 74.5 43t24.5 104q0 73 -32 124.5t-95 51.5q-26 0 -39 -4t-37 -18
q-8 -5 -19.5 3.5t-11.5 17.5q0 4 15 16.5t33.5 18.5t58.5 6q70 0 112.5 -52t52.5 -130q11 -5 29 -7.5t28 -1.5q36 0 70 16v-36z" />
    <glyph glyph-name="Ugrave" unicode="&#xd9;" horiz-adv-x="831" 
d="M739 -22h-164q11 71 21.5 150t10.5 125q0 20 -4 24q-2 3 -56 -5t-81 -11q0 -98 -6 -174.5t-15.5 -85.5t-153 -12t-199.5 -3h-43h-19v163q71 -11 150 -21.5t125 -10.5q20 0 24 4q3 2 -5.5 56.5t-10.5 79.5q-98 0 -172 5t-83 12q-9 12 -14.5 153.5t-5.5 202.5q0 20 25 33
t58 13q31 0 51.5 -10.5t20.5 -32.5t-7.5 -117.5t-7.5 -116.5q4 0 54.5 4.5t76.5 4.5q0 107 4.5 177.5t11.5 80.5q12 9 153.5 14.5t202.5 5.5q20 0 32.5 -24t12.5 -58q0 -30 -11 -51.5t-32 -21.5q-22 0 -117.5 7.5t-114.5 7.5q0 -4 4.5 -55t4.5 -77q106 0 179.5 -5
t81.5 -13.5t12.5 -112t5 -178.5t0.5 -127zM709 8q0 28 1 108.5t1 93.5q0 69 -2 113t-8.5 49.5t-89 8.5t-179.5 3q0 39 -3.5 83.5t-6.5 92.5q1 10 1 14q5 1 14.5 1h15.5q36 0 99 -4.5t131 -9.5q13 0 20 14t7 32q0 21 -7.5 35t-22.5 14q-8 0 -32 -1t-35 -1h-125
q-70 0 -103.5 -1.5t-39 -8t-5.5 -212.5v-52q-39 0 -83.5 -3.5t-91.5 -6.5q-10 0 -14 1q-2 16 -2 36q0 38 4.5 99t9.5 127q0 13 -13.5 20t-32.5 7q-20 0 -34.5 -8t-14.5 -23q0 -8 1 -32t1 -35v-124q0 -70 1.5 -103.5t6.5 -38t79 -6.5t185 -2q0 -64 5.5 -125.5t3.5 -63.5
q-7 -5 -40 -5q-44 0 -105 5.5t-146 14.5v-98q56 0 109.5 -1t100.5 -2q65 0 107 2t47.5 8.5t8.5 81t3 185.5q63 0 125 5.5t64 3.5q5 -7 5 -40q0 -44 -5.5 -105t-14.5 -146h99z" />
    <glyph glyph-name="dotlessi" unicode="&#x131;" horiz-adv-x="50" 
 />
    <glyph glyph-name="circumflex" unicode="&#x2c6;" horiz-adv-x="606" 
d="M256 223h-28q-16 0 -16 -19q0 -15 7 -23t16 -8q11 0 16 7t5 16v27zM420 263v101q0 3 -41 4t-52 1h-62t-47 -1q-56 0 -102 -31.5t-46 -82.5q0 -84 62.5 -137t115.5 -77t53 -31q0 -9 -9 -19t-17 -7q-92 46 -168.5 112.5t-76.5 158.5q0 39 18.5 69.5t52.5 51.5
q-6 11 -21.5 36.5t-15.5 42.5q0 62 80 88t168 26q12 0 12 -19t-12 -21q-82 -6 -145 -16t-63 -58q0 -15 15.5 -37t16.5 -24q15 6 28.5 7.5t40.5 1.5h13h188q25 0 39.5 -7t14.5 -16v-295q0 -25 17.5 -41.5t48.5 -16.5q14 0 24 12t19 27.5t19 15.5t19.5 -6.5t5.5 -13.5
q-21 -36 -41.5 -55.5t-45.5 -19.5q-51 0 -78.5 27.5t-27.5 70.5v139h-131v-27q0 -29 -15 -42.5t-38 -13.5q-26 0 -41.5 18t-15.5 48q0 24 12.5 40.5t36.5 16.5h192z" />
    <glyph glyph-name="tilde" unicode="&#x2dc;" horiz-adv-x="662" 
d="M270 137v34h-21q-9 0 -9 -3q6 -8 13 -15q7 -11 14 -21q1 2 3 5zM270 314q-39 -17 -80 -17q-68 0 -117.5 40t-49.5 104q0 74 82 87t145 13l-2 -40h-28.5t-29.5 1q-74 0 -100.5 -16.5t-26.5 -46.5q0 -46 38.5 -74t89.5 -28q46 0 86 28l33 -23v-136l148 1v337q0 12 21 12
q19 0 19 -12v-460q0 -25 17.5 -41.5t48.5 -16.5q14 0 24 12t19 27.5t19 15.5t19.5 -6.5t5.5 -13.5q-21 -36 -41.5 -55.5t-45.5 -19.5q-51 0 -78.5 27.5t-27.5 70.5v87h-148v-34q0 -53 -26 -53q-13 0 -29 12t-28.5 26.5t-22.5 29.5t-10 28q0 26 55 26h21v108z" />
    <glyph glyph-name="macron" unicode="&#xaf;" horiz-adv-x="75" 
d="M-25 682q0 -16 -11.5 -27.5t-26.5 -11.5q-16 0 -27.5 11.5t-11.5 27.5q0 15 11.5 26.5t27.5 11.5q15 0 26.5 -11.5t11.5 -26.5zM-11 751q-7 4 -31 8t-36 4q-31 0 -53 -23t-22 -60q0 -22 10 -52t26 -59l-41 -5q-7 9 -18.5 49.5t-11.5 74.5q0 46 32 80t78 34q15 0 36.5 -7
t35.5 -17z" />
    <glyph glyph-name="macron" unicode="&#x2c9;" horiz-adv-x="75" 
d="M-25 682q0 -16 -11.5 -27.5t-26.5 -11.5q-16 0 -27.5 11.5t-11.5 27.5q0 15 11.5 26.5t27.5 11.5q15 0 26.5 -11.5t11.5 -26.5zM-11 751q-7 4 -31 8t-36 4q-31 0 -53 -23t-22 -60q0 -22 10 -52t26 -59l-41 -5q-7 9 -18.5 49.5t-11.5 74.5q0 46 32 80t78 34q15 0 36.5 -7
t35.5 -17z" />
    <glyph glyph-name="breve" unicode="&#x2d8;" horiz-adv-x="625" 
d="M154 51q0 -21 -16 -37t-37 -16t-37 16t-16 37t15.5 37.5t37.5 16.5q21 0 37 -16t16 -38zM339 51q0 -21 -16 -37t-37 -16t-37 16t-16 37t15.5 37.5t37.5 16.5q21 0 37 -16t16 -38zM509 51q0 -21 -16 -37t-37 -16t-37 16t-16 37t15.5 37.5t37.5 16.5q21 0 37 -16t16 -38z
" />
    <glyph glyph-name="dotaccent" unicode="&#x2d9;" horiz-adv-x="778" 
d="M476 297q0 -27 -29 -46t-65.5 -35t-59.5 -26q-23 -13 -23 -36q0 -31 22.5 -45t59.5 -14q27 0 54.5 5t52.5 12t57 27.5t37 23.5v211q0 12 21 12q19 0 19 -12v-310q0 -25 17.5 -41.5t48.5 -16.5q14 0 24 12t19 27.5t19 15.5t19.5 -6.5t5.5 -13.5q-21 -36 -41.5 -55.5
t-45.5 -19.5q-51 0 -78.5 27.5t-27.5 70.5v48q-18 -11 -36 -21t-56.5 -20t-93.5 -10q-60 0 -98.5 22t-38.5 71q0 43 28.5 60t64.5 32q40 13 63.5 23t23.5 28q0 36 -47.5 54t-106.5 18q-87 0 -151 -34t-64 -81q0 -58 34 -103t79.5 -74t81.5 -45t36 -23q0 -9 -9 -19t-17 -7
q-92 46 -168.5 112.5t-76.5 158.5q0 39 18.5 69.5t52.5 51.5q-6 11 -21.5 36.5t-15.5 42.5q0 62 80 88t168 26q12 0 12 -19t-12 -21q-82 -6 -145 -16t-63 -58q0 -15 15.5 -37t16.5 -24q13 5 49.5 11.5t63.5 6.5q9 0 60 -6.5t109 -35.5t58 -72z" />
    <glyph glyph-name="ring" unicode="&#x2da;" horiz-adv-x="456" 
d="M264 293l-35 28q-34 -8 -73.5 -18.5t-69.5 -23.5q-7 -3 -15.5 7t-8.5 19q0 7 11 11.5t49.5 12.5t74.5 15q-27 22 -40 35t-13 50q0 30 28 66t91 73q7 4 15 -6t8 -20q0 -5 -3 -8.5t-51 -41t-48 -63.5q0 -28 6 -38.5t31 -32.5q37 3 80 9t77 21q6 3 13 -5t7 -17
q0 -5 -15.5 -15t-52 -14.5t-68.5 -6.5q51 -38 92 -89.5t41 -100.5q0 -62 -51 -105t-116 -43q-50 0 -78.5 8t-76.5 36.5t-48 34.5q0 10 8 20t16 7q49 -29 88 -47.5t91 -18.5q49 0 88 31t39 77q0 33 -16 63t-47 63q-34 -32 -77 -71t-65 -56q-6 -5 -15 6t-9 21q0 6 9.5 10
t52 43.5t76.5 73.5z" />
    <glyph glyph-name="cedilla" unicode="&#xb8;" horiz-adv-x="220" 
 />
    <glyph glyph-name="hungarumlaut" unicode="&#x2ba;" horiz-adv-x="175" 
 />
    <glyph glyph-name="ogonek" unicode="&#x2db;" horiz-adv-x="130" 
 />
    <glyph glyph-name="caron" unicode="&#x2c7;" horiz-adv-x="85" 
 />
  </font>
</defs>
</svg>
